<svg width="150" height="150" viewBox="0 0 150 150" fill="none" xmlns="http://www.w3.org/2000/svg">
<g clip-path="url(#clip0_19_5004)">
<path d="M83.3239 149.575C83.2577 149.575 78.5912 146.871 78.5438 146.843L76.4427 146.147C76.3456 146.147 76.2474 146.147 76.1526 146.155H76.1471C76.0368 146.155 75.9265 146.164 75.8084 146.164C74.6382 146.164 73.4923 146.121 72.6342 146.083L70.3445 146.847L66.9253 149.579H64.2L61.468 146.847L58.7184 144.097C57.9574 143.911 57.1622 143.699 56.2181 143.435H53.2721L48.4919 144.801H45.76L43.0269 142.751L42.3441 140.02L40.0776 136.62L39.6529 136.378C39.2691 136.157 38.8721 135.936 38.4883 135.697L36.1974 135.239L31.4162 134.557L27.9971 133.874L27.3143 131.141L26.6316 127.722L25.9202 125.942C25.2276 125.271 24.525 124.56 23.8247 123.828L21.1633 122.946L17.7442 121.581L15.0121 119.531V116.112L14.5247 111.728C13.939 110.768 13.3611 109.765 12.8041 108.75L10.9136 107.238L6.13346 104.506L5.45072 101.773L6.13346 99.0408L6.7754 93.9033C6.74342 93.793 6.71142 93.6827 6.67833 93.5658V93.5493C6.62318 93.3574 6.56801 93.1599 6.51286 92.9614L4.77134 89.4805L0.673885 86.0614L-0.00878906 82.6423L2.04044 79.9103L4.08974 74.4464L2.72426 70.3489L-0.00771197 65.5688L1.3577 62.1496L3.407 60.7842L5.96469 58.243C5.98601 58.1526 6.00664 58.0618 6.02649 57.9706C6.0673 57.7908 6.10812 57.6088 6.15224 57.4302V53.9581L5.4695 50.539L4.78568 45.075L6.15224 43.0258L10.2496 41.6603L13.4052 39.1357C13.4743 39.0129 13.5441 38.8908 13.6147 38.7695L13.703 38.6173L14.3471 33.4643L15.0298 29.3669L16.3963 27.3177L20.4938 26.6349L24.0232 24.8702C24.135 24.7533 24.2452 24.6357 24.3541 24.5173V24.5118C24.5338 24.321 24.7202 24.1224 24.9055 23.9327L26.6272 20.4882L27.9927 16.3908L28.6754 14.3416L32.0945 13.6588H37.5585L38.1177 13.4382C39.2846 12.7158 40.3677 12.0827 41.4265 11.5015L43.7041 7.51546L45.0695 4.78238L47.8026 4.09965L51.9 6.14892L53.0581 6.43899C55.2761 5.69782 57.5603 5.05921 59.8434 4.53973L60.7776 3.41693L63.5107 -0.00219727H66.2427L69.6618 1.36325L72.5581 2.81142C73.8309 2.75517 74.8643 2.7287 75.8084 2.7287C76.2629 2.7287 76.7206 2.74414 77.1629 2.75958L77.7574 2.77833L81.9541 0.682732L84.686 7.40495e-06L87.4192 1.36546L90.782 4.30921C92.4364 4.66215 94.1095 5.08127 95.8831 5.60186L100.395 4.78126L105.176 5.46399L108.596 9.56252L109.341 11.0526C110.736 11.7916 112.078 12.557 113.327 13.3246L116.109 12.9772L120.89 15.0265L122.939 17.7585L123.582 20.9735C125.311 22.5177 126.975 24.1577 128.531 25.843L132.502 26.6371L135.234 30.0563L135.917 34.8375L136.126 35.6746C137.285 37.4746 138.367 39.3287 139.341 41.1838L142.064 42.3508L144.796 45.0827V49.1813L144.157 52.693C144.76 54.589 145.303 56.6096 145.77 58.7008L148.21 60.7963L150.259 64.8949L149.576 69.675L147.491 73.0125C147.491 73.1978 147.501 73.3864 147.507 73.564V73.5728C147.517 73.8596 147.527 74.1574 147.527 74.4552C147.527 75.6805 147.492 76.9721 147.424 78.2923L147.527 78.5537L150.259 81.9728V84.7048L148.21 86.7541L146.161 89.4872L145.83 89.9493C145.288 92.4063 144.616 94.8328 143.818 97.2188L145.472 101.781L143.423 104.514L139.971 106.486C138.569 109.298 136.985 112.016 135.228 114.622V118.172L133.863 120.904L129.231 122.295C127.359 124.38 125.368 126.354 123.267 128.208L122.936 131.149L120.204 134.568L116.785 135.933H112.753C111.319 136.794 109.789 137.637 108.062 138.508L107.906 138.664L106.541 142.083L103.122 144.132L99.0232 143.45L96.5041 143.135C94.9081 143.615 93.2118 144.057 91.4603 144.448L90.1456 145.499L86.0471 149.597C86.0338 149.597 84.8206 149.578 84.0209 149.578C83.7859 149.568 83.5504 149.575 83.3162 149.596L83.3239 149.575ZM63.3927 126.508C65.7295 127.019 68.0981 127.372 70.4824 127.563L74.4529 130.45L77.5721 127.679C80.0574 127.547 82.5304 127.241 84.9728 126.763L89.2963 128.426L91.2816 125.118C93.4436 124.412 95.5579 123.568 97.6114 122.591L102.795 123.7L104.314 118.763C106.195 117.493 107.992 116.105 109.696 114.607L114.267 114.254V110.09C115.968 108.189 117.53 106.169 118.941 104.045L123.039 102.784L122.027 98.743C123.241 96.3567 124.271 93.8815 125.109 91.339L128.438 88.6147L126.685 85.4625C127.102 83.3972 127.397 81.309 127.567 79.2088L131.139 74.4474L127.609 70.918C127.458 68.8004 127.18 66.6937 126.778 64.6092L128.441 60.953L125.174 58.4162C124.478 56.2721 123.646 54.1748 122.682 52.1371L123.043 47.4629L118.638 45.0607C117.552 43.4697 116.381 41.9388 115.129 40.4746L114.271 35.3184L109.114 34.4603C107.768 33.3144 106.362 32.2313 104.933 31.2408L102.8 26.5478L98.3603 27.3552C96.7491 26.5528 95.0981 25.8332 93.4136 25.1989L89.9779 20.4761L83.6681 22.5794C82.3379 22.3588 81.0916 22.1879 79.8596 22.0721L74.4552 19.1261L70.618 22.0048C69.0971 22.1228 67.6224 22.2971 66.2349 22.5232L60.2857 21.15L57.503 24.7269C55.7776 25.3221 54.0842 26.0061 52.4295 26.7761L46.1129 25.8739L44.6481 31.2474C43.4934 32.0471 42.3872 32.8787 41.357 33.7169L35.3173 34.6456V39.4853C33.9839 40.979 32.7356 42.5465 31.5783 44.1805L26.5456 46.1162L27.7357 50.4805C26.6705 52.5322 25.741 54.6514 24.9529 56.8246L21.1467 60.2846L22.9489 63.8901C22.499 66.0658 22.1855 68.2675 22.0103 70.4824L19.1217 74.4529L21.879 77.2103C21.9889 79.5747 22.2561 81.9292 22.6787 84.2581L21.1434 87.9452L24.0375 89.9713C24.8542 92.7066 25.891 95.3712 27.1379 97.939L26.5412 102.114L30.1732 103.327C31.6244 105.589 33.2441 107.738 35.0184 109.757L35.3129 113.586L39.0706 113.899C41.1873 115.827 43.4556 117.582 45.8537 119.146L47.4585 122.357L50.3515 121.778C52.7309 123.017 55.2013 124.072 57.7412 124.936L60.2779 127.755L63.386 126.511L63.3927 126.508Z" fill="#584F42"/>
<path d="M65.8546 135.193L64.1781 136.153L60.9398 132.443L66.8064 129.083L82.6336 141.167L85.3281 139.071L90.4215 141.167L83.6604 147.823L65.8546 135.193ZM50.5446 130.868L48.6839 131.39L46.4494 127.002L52.9567 125.175L65.3538 140.758L68.4773 139.38L72.9067 142.652L64.724 147.454L50.5446 130.868ZM81.8108 135.362L80.4553 136.737L76.3325 134.037L81.0751 129.221L99.5714 136.595L101.601 133.849L107.069 134.489L102.35 142.722L81.8108 135.362ZM36.8792 122.442L34.9479 122.392L34.1075 117.539L40.8663 117.714L48.1181 136.259L51.5097 135.864L54.7777 140.295L45.5416 142.474L36.8792 122.442ZM97.2343 131.486L96.2417 133.141L91.6005 131.496L95.0637 125.69L114.782 128.456L116.106 125.305L121.57 124.629L118.942 133.746L97.2343 131.486ZM29.6009 132.405L25.9479 110.889L24.084 110.381L24.4203 105.468L30.9442 107.243L33.5792 126.981L36.9685 127.403L39.0884 132.485L29.6009 132.405ZM105.899 125.377L107.497 118.807L127.156 115.637L127.487 112.238L132.51 109.98L132.686 119.465L111.278 123.699L110.821 125.574L105.899 125.377ZM16.5762 118.472L18.2681 96.7148L16.584 95.7684L18.106 91.0842L24.0023 94.3931L21.7556 114.179L24.9398 115.413L25.7593 120.857L16.5762 118.472ZM117.688 108.656L135.978 100.78L135.468 97.4041L139.786 93.985L142.275 103.139L122.546 112.482L122.56 114.414L117.739 115.42L117.688 108.656ZM7.16703 102.047L14.1221 81.3618L12.7192 80.0328L15.3398 75.8625L20.249 80.5126L13.2376 99.1523L16.0236 101.127L15.4887 106.607L7.16703 102.047ZM125.11 96.2317L140.871 84.0629L139.539 80.9184L142.874 76.5376L147.558 84.7886L130.767 98.7309L131.262 100.598L126.841 102.768L125.11 96.2317ZM1.59497 83.025L14.3394 65.3096L13.3909 63.6265L17.1244 60.4147L20.4443 66.3056L8.25119 82.0478L10.3314 84.7556L8.2038 89.8346L1.59497 83.025ZM129.196 82.3975L141.613 66.8306L139.572 64.0942L141.771 59.046L148.278 65.9482L135.283 83.485L136.207 85.1813L132.429 88.3401L129.196 82.3975ZM129.595 68.1927L136.874 49.6567L134.117 47.6427L134.73 42.171L142.987 46.8464L135.736 67.4305L137.12 68.7784L134.441 72.9111L129.595 68.1927ZM2.04937 64.1791L18.6398 49.9997L18.1192 48.139L22.5089 45.9055L24.3332 52.4129L8.74645 64.8056L10.124 67.9302L6.8472 72.3607L2.04937 64.1791ZM126.04 54.2526L128.568 34.5011L125.401 33.2228L124.66 27.7666L133.808 30.2835L131.805 52.0114L133.476 52.9798L131.888 57.642L126.04 54.2526ZM6.91445 45.4158L26.709 36.2295V34.2982L31.5376 33.3298V40.0909L13.1902 47.8291L13.6744 51.2096L9.33098 54.5923L6.91445 45.4158ZM119.007 41.8269L116.124 22.125L112.731 21.7456L110.547 16.6897L120.032 16.6511L123.956 38.1188L125.831 38.6019L125.557 43.5199L119.007 41.8269ZM16.627 29.1618L38.0659 25.0864L38.538 23.2114L43.456 23.4519L41.8093 30.0089L22.1274 33.0309L21.7722 36.428L16.734 38.6471L16.627 29.1618ZM108.955 31.489L101.471 13.0368L98.0835 13.478L94.7615 9.08718L103.969 6.79306L112.883 26.7133L114.814 26.7386L115.716 31.5806L108.955 31.489ZM84.1766 8.75518L81.0685 10.1714L76.5983 6.95629L84.7204 2.05041L99.1093 18.4567L100.963 17.9118L103.252 22.2728L96.7645 24.1809L84.1766 8.75518ZM30.4788 14.9824L52.1659 17.4089L53.1685 15.7545L57.8009 17.4342L54.2935 23.2147L34.595 20.3008L33.2538 23.442L27.7843 24.0772L30.4788 14.9824ZM66.8957 8.56548L64.2288 10.6986L59.11 8.67135L65.7872 1.93018L83.7498 14.325L85.413 13.3445L88.6976 17.0129L82.874 20.4475L66.8957 8.56548ZM49.8619 12.2934L47.8126 15.0254L42.3487 14.3427L47.1299 6.14673L67.6192 13.6589L68.9847 12.2934L73.0832 15.0254L68.302 19.8055L49.8619 12.2934Z" fill="#7C7160"/>
<path fill-rule="evenodd" clip-rule="evenodd" d="M55.7685 136.979L61.5772 136.011L65.3535 140.758L68.4771 139.38L72.9065 142.652L64.7238 147.454L55.7685 136.979ZM40.6373 131.133H46.1136L48.1179 136.258L51.5094 135.864L54.7774 140.295L45.5414 142.473L40.6373 131.133ZM65.1906 9.92896L64.2286 10.6984L59.1098 8.6712L59.8481 7.9258L65.1906 9.92896ZM136.11 85.0036L135.398 85.8573L132.429 88.34L129.196 82.3973L141.613 66.8304L141.01 66.0226L146.385 68.5029L135.282 83.4848L136.11 85.0036ZM137.829 92.8666L136.706 87.2781L140.871 84.0628L139.538 80.9183L142.874 76.5374L147.558 84.7885L137.829 92.8666ZM132.621 43.1506L131.805 52.0113L133.476 52.9797L131.887 57.6418L126.04 54.2525L127.394 43.6732L132.621 43.1506ZM127.001 28.4105L126.802 33.7881L125.401 33.2227L124.66 27.7664L127.001 28.4105ZM76.8417 9.55821L83.7495 14.3249L85.4128 13.3444L88.6973 17.0128L82.8738 20.4473L72.3006 12.5848L76.8417 9.55821ZM78.3144 5.91943L82.0973 9.70233L81.0682 10.1712L76.598 6.95614L78.3144 5.91943ZM88.952 14.6073L93.6641 12.2482L99.1091 18.4565L100.963 17.9117L103.252 22.2727L96.7642 24.1808L88.952 14.6073ZM96.8888 8.55694L99.5615 13.2853L98.0833 13.4778L94.7613 9.08703L96.8888 8.55694ZM104.468 20.426L109.829 19.89L112.883 26.7131L114.814 26.7385L115.716 31.5804L108.955 31.4889L104.468 20.426ZM113.696 16.6768L114.715 21.9674L112.73 21.7455L110.547 16.6896L113.696 16.6768ZM117.191 29.4121L122.461 29.9389L123.956 38.1186L125.831 38.6017L125.557 43.5197L119.007 41.8267L117.191 29.4121ZM136.284 43.0508L135.064 48.3349L134.116 47.6425L134.73 42.1708L136.284 43.0508ZM133.309 58.7337H138.799L135.736 67.4304L137.12 68.7782L134.441 72.9109L129.594 68.1925L133.309 58.7337ZM143.082 60.4363L140.279 65.0419L139.572 64.094L141.771 59.0458L143.082 60.4363ZM60.6227 11.0936L67.619 13.6587L68.9844 12.2933L73.0829 15.0253L68.3017 19.8054L56.6554 15.0609L60.6227 11.0936ZM40.8547 21.2267L44.9641 16.603L52.1657 17.4087L53.1683 15.7543L57.8006 17.4341L54.2933 23.2146L40.8547 21.2267ZM29.6186 31.8805L31.1115 26.4082L38.0657 25.0863L38.5377 23.2113L43.4557 23.4517L41.8091 30.0087L29.6186 31.8805ZM19.9541 44.9761L21.069 38.8466L26.7087 36.2293V34.298L31.5374 33.3297V40.0907L19.9541 44.9761ZM15.5812 59.3711L14.5181 53.5221L18.6396 49.9995L18.119 48.1389L22.5087 45.9054L24.333 52.4128L15.5812 59.3711ZM8.02639 74.0846L12.3319 76.7788L8.25095 82.0477L9.55248 83.7419L3.46854 84.9556L1.59473 83.0249L8.02639 74.0846ZM13.8007 81.0573L12.719 80.0326L15.3396 75.8624L17.7737 78.168L13.8007 81.0573ZM10.9133 90.9046L15.4008 93.4008L13.2373 99.1521L16.0234 101.126L15.4885 106.607L7.16679 102.047L10.9133 90.9046ZM131.223 108.373L131.748 102.602L135.978 100.78L135.468 97.404L139.786 93.9848L142.275 103.139L131.223 108.373ZM119.781 122.017L121.262 116.587L127.156 115.637L127.487 112.237L132.509 109.98L132.686 119.465L119.781 122.017ZM105.034 132.298L107.916 127.493L114.782 128.456L116.105 125.305L121.569 124.629L118.942 133.746L105.034 132.298ZM89.9667 138.284L94.2527 134.474L99.5712 136.595L101.601 133.848L107.069 134.489L102.35 142.722L89.9667 138.284ZM77.3558 137.137L82.6333 141.166L85.3279 139.071L90.4212 141.166L83.6602 147.823L72.0192 139.566L77.3558 137.137ZM13.797 66.0631L14.3392 65.3095L13.3907 63.6264L17.1242 60.4146L19.5582 64.7336L13.797 66.0631ZM42.7047 13.7318L48.4512 14.1736L47.8124 15.0253L42.3484 14.3425L42.7047 13.7318ZM20.5451 92.453L17.4389 96.2488L16.5837 95.7683L18.1057 91.0841L20.5451 92.453ZM17.5387 106.092L22.5596 107.096L21.7554 114.179L24.9396 115.413L25.7591 120.857L16.576 118.472L17.5387 106.092ZM25.7558 105.831L25.0164 110.635L24.0837 110.381L24.4201 105.468L25.7558 105.831ZM27.6455 120.889H32.7657L33.5789 126.98L36.9683 127.403L39.0881 132.485L29.6006 132.405L27.6455 120.889Z" fill="#675E50"/>
<path d="M67.6191 137.281L73.0842 132.501L80.5963 138.647L75.1324 142.745L67.6191 137.281ZM84.011 137.281L89.4761 130.45L96.9882 135.232L92.2081 140.695L84.011 137.281ZM51.2283 133.862L59.4231 131.129L64.2044 137.276L56.0085 140.695L51.2283 133.862ZM99.7202 133.179L103.139 125.666L112.701 127.031L109.282 133.862L99.7202 133.179ZM36.8857 125.666L45.0805 124.983L48.4996 133.179L40.3037 133.862L36.8857 125.666ZM115.428 116.103L124.308 115.421L122.943 123.616L114.747 124.299L115.428 116.103ZM25.9566 122.934L25.2739 114.054L33.4699 115.419L34.8353 123.615L25.9566 122.934ZM124.307 103.81L134.552 100.391V107.904L125.674 112.001L124.307 103.81ZM15.7114 109.274L17.0768 99.7113L24.5901 102.443L23.2247 111.323L15.7114 109.274ZM130.455 90.8337L138.65 84.6859L141.382 91.5165L133.187 98.3458L130.455 90.8337ZM8.19926 91.5165L12.2967 84.0032L18.4434 88.7834L15.0243 96.9793L8.19926 91.5165ZM131.82 77.8565L139.332 68.294L142.751 74.4407L137.288 82.6367L131.82 77.8565ZM6.83276 74.4374L11.6129 68.2907L16.3942 73.0709L11.6129 80.5841L6.83276 74.4374ZM131.82 58.7282L135.918 50.5334L142.065 55.9973L139.332 63.5106L131.82 58.7282ZM8.19926 57.3628L15.0287 51.8988L17.7607 58.7282L12.2967 63.5095L8.19926 57.3628ZM15.0287 40.2881L23.9085 36.869V44.3812L15.7125 48.4786L15.0287 40.2881ZM126.356 45.0683L127.039 36.1896L134.552 38.2389L133.187 47.1176L126.356 45.0683ZM24.5912 26.6282L34.1537 25.2628L33.471 32.0922L24.5912 33.4576V26.6282ZM116.111 32.0922L115.428 23.8973L123.624 24.5801L124.307 32.7749L116.111 32.0922ZM100.403 15.0176L109.283 13.6521L112.702 22.5308L103.823 23.2135L100.403 15.0176ZM35.5191 21.1653L37.5684 13.6521L47.8137 16.3841L45.7644 22.5319L35.5191 21.1653ZM51.2272 13.6521L55.3247 6.82161L64.8872 11.6029L60.1059 17.7495L51.2272 13.6521ZM84.01 10.9201L92.8897 6.13889L96.9872 14.3348L90.1577 17.0668L84.01 10.9201ZM66.2526 9.55469L73.7647 4.77344L79.9125 10.9212L73.7647 15.0187L66.2526 9.55469Z" fill="#585044"/>
<path d="M74.7881 140.71C58.4978 140.691 42.7952 134.622 30.7264 123.68C18.6576 112.739 11.0828 97.7045 9.47136 81.4941C7.85998 65.2836 12.3269 49.0524 22.0055 35.9491C31.6842 22.8457 45.8847 13.8042 61.8525 10.5783C77.8202 7.35253 94.417 10.1724 108.423 18.4909C122.43 26.8095 132.847 40.0337 137.655 55.5984C142.463 71.1631 141.318 87.9587 134.443 102.727C127.568 117.496 115.453 129.185 100.448 135.526C92.3306 138.963 83.6031 140.726 74.7881 140.71ZM74.7881 21.1843C64.1865 21.1843 53.8228 24.3281 45.0079 30.2181C36.1929 36.108 29.3225 44.4797 25.2654 54.2743C21.2083 64.069 20.1469 74.8467 22.2152 85.2447C24.2834 95.6426 29.3886 105.194 36.8851 112.69C44.3816 120.187 53.9328 125.292 64.3307 127.36C74.7287 129.429 85.5064 128.367 95.301 124.31C105.096 120.253 113.467 113.382 119.357 104.567C125.247 95.7525 128.391 85.3889 128.391 74.7873C128.375 60.5758 122.722 46.951 112.673 36.902C102.624 26.853 88.9996 21.2004 74.7881 21.1843Z" fill="#675E50"/>
<path fill-rule="evenodd" clip-rule="evenodd" d="M30.7265 123.68C42.7953 134.622 58.4978 140.691 74.7882 140.71C83.6031 140.726 92.3306 138.963 100.448 135.526C115.453 129.185 127.569 117.496 134.443 102.727C138.872 93.2135 140.923 82.8583 140.536 72.5329L137.283 77.1808V82.6447L135.917 89.4752L133.185 96.9874L129.088 103.818L121.575 116.111L116.111 121.575L105.183 129.087L99.035 131.82L96.9857 128.401H95.6203L96.3031 132.5L89.4736 135.232L75.8137 137.281L73.7645 135.232L71.7152 136.597L58.0552 134.548L51.9085 132.499L45.7619 129.766L30.7365 120.204L28.0034 116.106L23.906 111.326L21.174 108.594L15.7089 98.3484V96.2991L12.977 90.1524L12.2942 81.9565L9.29639 79.3911C9.34341 80.092 9.40173 80.7931 9.47142 81.4942C11.0828 97.7046 18.6576 112.739 30.7265 123.68ZM45.0079 30.2182C53.8229 24.3282 64.1865 21.1844 74.7882 21.1844C88.9996 21.2005 102.624 26.8531 112.673 36.9021C120.917 45.1461 126.202 55.7966 127.844 67.2033L129.778 64.8852L128.413 53.9572L124.314 45.7613L123.632 43.712L121.582 43.0293L116.119 34.8344L107.923 28.6866L101.776 24.5892L103.141 23.2238L101.091 21.8583L98.3589 22.541L92.2122 20.4918L80.6016 18.4414H68.9909L58.7457 19.8069L55.3266 18.4414L56.0093 21.1745L48.4972 25.2719L40.3012 29.3694L31.4215 37.5653H30.056L29.3732 38.9308V40.9745L23.2266 50.537L19.8075 62.1477L22.0864 64.9997C22.7657 61.3416 23.8274 57.7463 25.2655 54.2744C29.3226 44.4798 36.193 36.1081 45.0079 30.2182Z" fill="#585044"/>
<path fill-rule="evenodd" clip-rule="evenodd" d="M62.151 129.084H64.2003L73.7616 130.448L83.3241 129.765L93.5694 127.033L94.9348 129.765L95.6175 127.033L94.9348 125.668L105.863 120.888L114.741 114.057L116.792 114.74L116.109 112.008L122.256 103.813L126.353 95.6172L128.402 89.4705L129.768 81.2746L131.817 80.5919L130.452 79.2264V72.3959L128.402 67.6157L127.887 67.5052C128.218 69.9049 128.388 72.3374 128.391 74.7873C128.391 85.3889 125.247 95.7525 119.357 104.567C113.467 113.382 105.096 120.253 95.301 124.31C85.5064 128.367 74.7287 129.429 64.3307 127.36C53.9328 125.292 44.3816 120.187 36.8851 112.69C29.3886 105.194 24.2834 95.6426 22.2152 85.2447C21.5939 82.1215 21.2551 78.9641 21.1949 75.8093L21.1723 75.8117L19.1219 79.9091L18.4392 81.2746L19.1219 85.372L19.8057 90.836L21.855 96.2999L28.6844 105.862L36.1976 114.741L43.7098 120.889L50.5403 124.986L61.4682 127.718L62.151 129.084ZM9.15955 76.1739C8.9004 61.7675 13.3864 47.618 22.0055 35.9491C31.6842 22.8457 45.8847 13.8042 61.8525 10.5783C77.8202 7.35253 94.417 10.1724 108.423 18.4909C122.43 26.8095 132.847 40.0337 137.655 55.5984C139.311 60.9603 140.261 66.4683 140.514 71.9892L138.652 69.6595L136.603 60.097L134.554 54.633L131.822 45.7544L129.09 41.6569L128.407 39.6077L122.259 32.0944L115.429 25.9477L107.916 19.7999L105.184 21.1665L103.819 19.1161L104.502 18.4334L99.0366 15.7014L96.9874 16.3841V15.0187L88.1087 12.2867L76.4958 10.9268L65.5679 12.2922L53.9572 15.0242L48.4932 17.0735V19.1227L47.1278 18.44L45.0774 19.1227L38.248 23.904L32.7841 28.0014L28.0028 32.0988L20.4907 40.9775L21.8561 43.0268H19.1231L15.7039 51.2227L12.9719 59.4176L10.9281 73.0786L9.15955 76.1739Z" fill="#7C7160"/>
<path d="M75.428 131.368C106.768 131.368 132.174 105.962 132.174 74.6218C132.174 43.2817 106.768 17.8755 75.428 17.8755C44.0878 17.8755 18.6816 43.2817 18.6816 74.6218C18.6816 105.962 44.0878 131.368 75.428 131.368Z" fill="#262624"/>
<mask id="mask0_19_5004" style="mask-type:alpha" maskUnits="userSpaceOnUse" x="25" y="25" width="100" height="100">
<path d="M74.7884 124.298C102.133 124.298 124.299 102.131 124.299 74.7872C124.299 47.443 102.133 25.2761 74.7884 25.2761C47.4442 25.2761 25.2773 47.443 25.2773 74.7872C25.2773 102.131 47.4442 124.298 74.7884 124.298Z" fill="#584F42"/>
</mask>
<g mask="url(#mask0_19_5004)">
<path d="M46.2531 68.9759L53.9484 75.3884L100.118 79.2355L109.094 70.8995L111.66 44.6086L41.1245 43.3259L46.2531 68.9759Z" fill="#CA9464"/>
<path d="M48.1767 64.4867L49.4594 59.357L53.3065 60.6397L55.23 63.8459L59.0771 64.4867L63.566 63.204L65.4895 67.693L73.1848 68.9757L86.6506 68.3349L88.5752 63.8459L90.4988 65.1286L94.9877 64.4878L98.194 61.9224L100.118 61.2816L102.682 67.0522L94.3458 71.5411L94.9866 75.3882L104.605 79.2352L112.299 72.1764L108.452 46.5275L42.405 44.604L39.1987 71.5356L55.23 74.1L56.5127 68.3294L48.1767 64.4867Z" fill="#A77349"/>
<path d="M84.7147 58.7172C84.7103 57.3202 85.1206 55.9533 85.8936 54.7895C86.6665 53.6258 87.7675 52.7177 89.0569 52.18C90.3463 51.6424 91.7663 51.4994 93.1371 51.7693C94.5078 52.0391 95.7676 52.7097 96.757 53.696C97.7464 54.6823 98.4209 55.94 98.6951 57.3099C98.9692 58.6798 98.8307 60.1002 98.2971 61.3913C97.7635 62.6824 96.8587 63.7862 95.6974 64.5628C94.5362 65.3394 93.1706 65.754 91.7735 65.754C90.848 65.7554 89.9313 65.5746 89.0756 65.2217C88.22 64.8689 87.4422 64.351 86.7867 63.6975C86.1313 63.0441 85.6109 62.268 85.2554 61.4134C84.8999 60.5589 84.7161 59.6427 84.7147 58.7172ZM52.0125 58.0764C52.0125 56.6803 52.4265 55.3155 53.2021 54.1547C53.9777 52.9939 55.0802 52.0892 56.37 51.5549C57.6599 51.0206 59.0792 50.8808 60.4484 51.1532C61.8177 51.4256 63.0755 52.0979 64.0627 53.0851C65.0499 54.0723 65.7221 55.33 65.9945 56.6993C66.2669 58.0686 66.1271 59.4879 65.5928 60.7777C65.0586 62.0675 64.1538 63.17 62.993 63.9456C61.8322 64.7212 60.4674 65.1352 59.0713 65.1352C57.1994 65.1352 55.4041 64.3917 54.0803 63.0681C52.7566 61.7446 52.0127 59.9494 52.0125 58.0775V58.0764Z" fill="#926038"/>
<path d="M114.865 59.3569L131.537 67.0521L133.46 86.2896L119.994 117.71L84.7268 133.741L42.4047 126.683L19.9621 102.315L15.4731 76.6665L19.9621 63.8415L37.9169 58.7117L53.9426 72.1819L64.8441 79.2407L88.575 80.5224L99.4753 72.8271L114.865 59.3569Z" fill="#A5A69C"/>
<path d="M107.811 109.373L103.322 105.526H96.2636L87.9276 102.32L81.5151 97.1902L79.5927 97.831L78.9507 103.603L77.0272 104.243V97.831H73.1801L71.8985 101.678H69.975L71.2577 97.1891L68.0515 96.5483L62.9217 101.037L56.5092 103.603L49.4504 104.243L42.3916 103.603L38.5445 108.732L36.6221 118.99L19.3059 88.2111L25.7184 83.7222L79.5827 84.363L124.472 85.6457L129.602 95.903L112.286 120.27L107.811 109.373ZM96.9089 77.3118L112.94 56.7971L122.559 59.3615L128.33 66.4203L119.994 81.1688L102.678 81.8096L96.9089 77.3118ZM22.5265 77.3118L17.3967 68.3339L25.0919 57.4335L34.0698 55.51L52.6655 74.7464L46.8937 81.1589L22.5265 77.3118Z" fill="#86877F"/>
<path opacity="0.4" d="M86.6821 119.716L85.6189 107.583L86.7847 106.195L88.1745 107.361L88.9575 116.303L89.573 123.33L89.606 131.051L87.163 132.553L86.6821 119.716ZM71.2586 131.816L72.5414 120.916L73.823 118.992L75.1057 120.916L74.4648 131.816H71.2586ZM56.1152 128.153L57.4388 119.275L60.5976 106.779L62.8785 104.526L63.8634 106.622L59.7825 120.926L58.459 129.804L56.1152 128.153ZM104.605 111.295L102.04 104.236L99.4752 100.389H102.04L104.605 104.878L107.169 110.65L108.452 118.354L106.528 119.636L104.605 111.295ZM38.5575 118.99L40.4811 110.012L45.6108 95.9044L48.1763 97.1871L42.4046 111.295L40.4811 119.631L38.5575 118.99ZM112.299 100.393L113.582 99.1106L119.353 108.729L117.43 110.012L112.299 100.393ZM25.7336 101.676L31.5042 90.7801L32.7869 92.0628L27.6572 102.963L25.7336 101.676ZM112.941 81.1614L105.889 74.1025L107.812 72.8198L116.789 81.7977L112.941 81.1614ZM30.2204 77.9551L38.5553 71.5426L40.4788 72.1834L35.9909 75.3897L33.4277 78.5948L30.2204 77.9551ZM112.941 67.6978L113.582 65.7742L126.407 70.2632L125.766 72.8286L112.941 67.6978ZM21.2446 70.904L28.3035 66.415L34.0751 65.1323L35.3579 67.0558L28.9454 68.3386L21.8866 72.8275L21.2446 70.904Z" fill="#B5B5AF"/>
<path opacity="0.302" d="M94.9864 75.3883L114.223 56.7927L131.539 63.846L127.05 73.4648L114.225 77.9538L94.9864 75.3883ZM18.0386 72.1821L15.4731 61.9247L35.3515 56.796L49.4581 74.1122L32.7871 75.3949L18.0386 72.1821Z" fill="#584126"/>
<path d="M86.0098 92.0607L82.8035 94.6261H75.7447L69.3321 93.9853L65.4851 89.4963L67.4087 85.0073L85.3634 86.29L86.0098 92.0607Z" fill="#966845"/>
<path d="M83.4442 74.1053L94.9865 72.8226L105.244 79.2351L117.427 79.8759L126.404 70.8991L134.099 76.6708L131.533 89.4958L111.019 101.679L94.9887 101.038L78.9575 92.702L77.0339 88.2131L72.5449 93.3428L61.6446 99.1134L39.8427 99.7542L16.1118 83.7208L19.318 72.1785L31.5012 77.3083H43.0435L52.6622 70.8958L69.3342 72.8193L83.4442 74.1053Z" fill="#D3D3CF"/>
<path d="M34.711 102.961L18.6797 93.9841L22.4904 88.2687L21.2451 87.5716L19.9624 77.3142L23.8095 70.2554L37.2753 74.7444L34.069 81.1569L33.4282 88.8543L36.3323 94.6624L47.5348 95.9076L61.6426 94.6249L68.0606 90.7801L72.5495 86.2911L71.2591 83.7213L64.8466 80.515L61.0018 74.7466L61.6426 71.5404L91.1396 72.8231L91.7804 74.7466L86.6507 81.1591L81.5209 83.0826L79.5985 86.9297L84.0863 92.0595L95.6286 96.5474L110.376 98.4709L113.344 96.8639L116.148 90.1359L115.507 83.0771L111.018 77.9473L124.484 69.6113L129.614 76.6701L126.406 90.137L126.016 90.3576L131.536 95.2646L114.864 105.522L94.3492 106.163L61.6459 108.728L34.711 102.961Z" fill="#BEBEB9"/>
<path opacity="0.2" d="M97.5517 94.6245L85.3675 88.8539L78.3087 79.876L79.5925 79.2352L87.9275 88.8539L98.8289 93.3429H109.086L116.781 91.4193L127.683 85.0069L128.324 86.2896L117.422 92.7021L107.165 95.2675L97.5517 94.6245ZM38.5576 90.7797L21.2414 81.8017L20.6006 79.8782L39.1962 89.4969L52.0211 91.4205L61.6399 88.855L67.4116 83.7252L71.2587 78.5955L73.1811 79.8782L64.2043 90.1355L50.0965 93.3418L38.5576 90.7797ZM91.78 84.3672L82.8021 78.5955L84.0848 77.9547L89.8565 80.5201L95.6282 84.3672L105.247 85.6499L114.224 85.0091L121.283 81.162L127.054 76.673H128.337L121.924 82.4447L113.588 86.2918L103.971 86.9326L91.78 84.3672ZM35.3524 83.7264L21.2447 75.3903L21.8855 74.1076L34.0697 81.1664L41.7638 83.09L50.7418 84.3727L59.7197 81.1664L67.4149 76.0366L68.0557 77.3193L59.7197 83.091L49.4624 85.6565L35.3524 83.7264ZM98.1925 81.1609L92.4208 77.3138L86.0083 76.673L87.9318 74.7495L93.7036 76.0322L98.8333 79.2385L106.529 81.162L113.582 79.8793H115.505L106.529 82.4447L98.1925 81.1609ZM35.9932 79.2374L38.5576 78.5966H48.8149L55.2274 74.7495L64.2054 73.4668L65.4881 74.7495L55.8693 76.0322L50.7395 79.2385L43.0443 79.8793L35.9932 79.2374Z" fill="#E2E2DE"/>
<path d="M87.9319 66.4102L91.1381 69.6165V74.1054L85.3675 79.2352L82.8021 79.876L78.9551 81.7996H74.4661L69.9782 79.876L66.1301 78.5933L61.6411 74.1044V69.6154L64.8473 66.4091H68.6944L80.2367 67.6918L84.7257 65.7683L87.9319 66.4102Z" fill="#CE724E"/>
<path d="M86.6506 65.1287L84.7271 69.6177L82.1616 77.9537H71.9043L68.6981 70.2585L66.1326 65.7695L75.7491 63.2063L86.6506 65.1287Z" fill="#95543D"/>
<path d="M87.296 58.7174C87.3003 57.8327 87.5666 56.9691 88.0613 56.2356C88.556 55.5021 89.2569 54.9316 90.0755 54.5961C90.8941 54.2605 91.7938 54.175 92.661 54.3502C93.5281 54.5255 94.3239 54.9537 94.948 55.5809C95.572 56.208 95.9963 57.0059 96.1673 57.8739C96.3383 58.7419 96.2484 59.6412 95.9088 60.4581C95.5692 61.2751 94.9953 61.9731 94.2594 62.4642C93.5235 62.9553 92.6586 63.2174 91.7739 63.2174C90.5835 63.2142 89.4429 62.7383 88.6032 61.8945C87.7635 61.0506 87.2933 59.9078 87.296 58.7174ZM54.5938 58.0766C54.5937 57.1909 54.8563 56.3252 55.3484 55.5888C55.8404 54.8524 56.5398 54.2784 57.358 53.9395C58.1763 53.6006 59.0766 53.5119 59.9453 53.6847C60.8139 53.8575 61.6118 54.284 62.2381 54.9102C62.8643 55.5365 63.2908 56.3343 63.4636 57.203C63.6364 58.0716 63.5477 58.972 63.2088 59.7902C62.8699 60.6085 62.2959 61.3078 61.5595 61.7998C60.8231 62.2919 59.9573 62.5545 59.0717 62.5545C57.8843 62.5545 56.7455 62.0829 55.9057 61.2434C55.066 60.4038 54.594 59.2651 54.5938 58.0777V58.0766Z" fill="#E6E2DC"/>
<path d="M53.9426 56.7924L64.2 60.6395L87.2846 61.2803L98.1849 58.074L97.5441 53.5851L53.9426 52.3035V56.7924Z" fill="#C4C4C4"/>
<path d="M47.5359 49.0973L45.6124 59.9988L55.2311 65.1286L53.9429 73.4635H37.9172L30.8583 58.0742L30.2175 37.5595L61.0017 18.9595L91.7804 20.883L119.354 38.1992L118.071 60.001L112.3 74.1076L97.551 75.3904L95.6274 66.4135L104.604 61.2837L102.681 50.3823L47.5359 49.0973Z" fill="#614526"/>
<path d="M37.2761 53.5867L35.3525 42.6853L41.7639 29.2194L66.1312 23.4478L71.9029 26.0132L72.5438 40.7617H47.5345L45.611 43.3272L40.4812 51.6632L39.8404 57.4349L37.2761 53.5867ZM105.888 46.5279L104.605 42.0389L88.575 39.479L84.7279 27.9367L88.575 24.0897L108.453 30.5022L116.148 46.5334L111.66 51.0224L105.888 46.5279Z" fill="#805A30"/>
<path d="M94.9863 66.4101L103.322 61.2815L102.681 52.9454L105.247 52.3046L106.53 61.9223L97.5517 67.694L98.8322 73.4634L111.015 72.8226L114.222 66.4101L117.428 58.0741L118.069 49.7392L119.992 50.38L119.351 59.3568L116.148 67.6928L112.301 74.7517L96.9109 76.0344L94.9863 66.4101ZM37.9157 74.1053L32.787 65.1274L29.5808 57.4333V49.7392L30.8635 49.0984L31.5043 56.7936L34.7106 64.4877L39.1984 71.5465L52.0234 72.1873L53.3062 65.7748L43.6874 60.6451L46.8936 49.7447L48.8172 51.0274L46.8936 59.3624L55.8716 64.4921L54.5888 74.1109L37.9157 74.1053ZM93.7036 45.8899L93.0627 38.8311L92.4219 34.3421L90.4985 26.6469L91.7811 25.3653L94.3466 33.0594L94.9874 38.8311L95.6282 46.5263L93.7036 45.8899ZM57.1532 46.5307V40.1182L57.794 32.423L59.7175 24.7278L61.6411 26.0105L59.7175 34.3465L59.0767 40.1182V46.5307H57.1532Z" fill="#E1BD50"/>
<path d="M71.2588 25.3751L68.6934 44.6115L42.4026 42.6879V50.3832L68.0515 59.36L71.8985 76.0321H81.5161L84.0816 59.36L107.807 52.3012V43.9651L84.0816 45.2479L81.5161 24.7332L71.2588 25.3751Z" fill="#E8C049"/>
<path d="M80.8787 63.2066L78.9552 58.0768L82.1614 52.9482L93.0629 51.0246L100.122 52.9482L106.534 51.0246L107.175 45.2529H107.817V52.3117L84.0905 59.3639L82.8077 67.0592L80.8787 63.2066ZM42.4048 50.3827L43.0456 49.1L66.1302 55.5125L68.0537 59.3584L42.4048 50.3827Z" fill="#E1A650"/>
<path d="M71.9028 76.029L70.6201 70.8992L71.2609 61.2816L69.9782 53.5864L69.3374 49.0974L64.8484 45.8911L43.6852 43.9676L43.0444 50.3801H42.4036V42.6849L68.6943 44.6084L71.2598 26.0117L73.8241 24.729V34.3478L73.1833 42.6838L72.5425 47.1728L71.9017 54.868L73.8241 62.5621V70.8981L77.0304 74.1044H80.8775L82.1602 71.5389L81.5194 76.0279L71.9028 76.029ZM89.219 45.8911L84.0892 46.5319L82.1657 45.8911L80.2422 27.2944H82.1657L83.4484 44.6106L84.7312 45.2514L107.816 43.9687V45.2514L91.7844 45.8922L90.5017 47.8158L89.219 45.8911Z" fill="#F5D269"/>
</g>
</g>
<defs>
<clipPath id="clip0_19_5004">
<rect width="150" height="150" fill="white"/>
</clipPath>
</defs>
</svg>
