<svg width="48" height="48" viewBox="0 0 48 48" fill="none" xmlns="http://www.w3.org/2000/svg">
<path fill-rule="evenodd" clip-rule="evenodd" d="M1.06679 15.273L0 21.8182L3.20037 39.7344L7.46661 43.6364L20.2672 47.9998L34.1336 46.909L44.8005 40.3638L48 33.8186L45.8673 13.0913L1.06679 15.273Z" fill="#F49D00"/>
<path fill-rule="evenodd" clip-rule="evenodd" d="M47.1712 35.5143L46.1338 27.728L45.2447 29.7279L45.7413 38.4394L47.1712 35.5143ZM43.4599 41.1866L42.5782 33.7278L41.3337 34.91L40.8774 42.7711L43.4599 41.1866ZM37.6559 44.7478L38.3559 36.9099L35.9998 37.7276L35.5762 46.0239L37.6559 44.7478ZM31.0292 47.1534L31.3966 39.735H28.8006L27.9269 47.3974L31.0292 47.1534ZM24.5334 47.6644V40.3643H22.3998L21.4781 47.9047L24.5334 47.6644ZM16.9452 46.8676L16 39.735H13.8674V45.8184L16.9452 46.8676ZM9.60019 44.3638V36.0009H7.46662L6.52073 42.7715L7.4666 43.6365L9.60019 44.3638ZM4.76833 41.1687L6.04454 30.637L4.08861 28.7275L2.98744 38.5427L3.20036 39.7346L4.76833 41.1687Z" fill="#F48A00"/>
<path fill-rule="evenodd" clip-rule="evenodd" d="M1.06677 14.1821L8.53338 3.27258L23.549 0L38.4007 2.18172L45.8673 13.0913L46.9341 29.4551L43.7337 36.0003L33.0668 40.3637L17.2398 41.4546L7.46659 37.0912L2.13356 26.2991L1.06677 14.1821Z" fill="#FFD640"/>
<path fill-rule="evenodd" clip-rule="evenodd" d="M46.7563 26.7267L45.8674 13.0913L38.4008 2.18172L23.5491 0L8.53344 3.27258L1.06683 14.1821L1.15514 15.1851L10.9308 5.4543L22.3999 3.27257L37.334 5.4543L42.6671 14.1821L46.7563 26.7267Z" fill="#FFE952"/>
<path fill-rule="evenodd" clip-rule="evenodd" d="M37.3339 18.5459L32 26.2994L16 29.4554L11.7338 21.8185L12.8006 31.6372L28.8006 33.8189L37.3339 28.3637L38.4007 20.7276L37.3339 18.5459Z" fill="#FFE952"/>
<path fill-rule="evenodd" clip-rule="evenodd" d="M26.3209 29.8246L26.781 30.7619C27.7238 32.6822 30.0106 33.5208 31.9713 32.6652L36.0811 30.872C37.5389 30.2358 38.4813 28.7964 38.4813 27.2058V19.8882C38.4813 18.9929 37.3952 18.5488 36.7679 19.1875L26.3209 29.8246Z" fill="white"/>
<path fill-rule="evenodd" clip-rule="evenodd" d="M21.5181 11.3354L14.0409 13.4944L11.9041 21.0511L15.1085 30.7678H26.8603L35.4068 27.5283L37.5436 17.8125L30.0646 10.2559L21.5181 11.3354Z" fill="#FFC12C"/>
<path fill-rule="evenodd" clip-rule="evenodd" d="M36.9648 20.4442L37.5436 17.8125L30.0646 10.2559L21.5181 11.3354L14.0409 13.4944L11.9041 21.0511L12.8459 23.9071L16 17.4547L28.8005 14.1822L36.9648 20.4442Z" fill="#F49D00"/>
</svg>
