<svg width="20" height="20" viewBox="0 0 20 20" fill="none" xmlns="http://www.w3.org/2000/svg">
<path d="M9.98746 20C7.50858 19.9969 5.1192 19.0732 3.28283 17.4081C1.44646 15.743 0.293999 13.4551 0.0489881 10.9884C-0.196022 8.52166 0.483889 6.05184 1.95684 4.05803C3.42979 2.06423 5.59077 0.688552 8.02061 0.197882C10.4504 -0.292787 12.9759 0.136523 15.1071 1.40252C17.2383 2.66852 18.8234 4.68097 19.5548 7.0495C20.2862 9.41802 20.1118 11.9738 19.0655 14.221C18.0192 16.4682 16.1754 18.2467 13.892 19.2115C12.6568 19.7344 11.3288 20.0025 9.98746 20ZM9.89049 13.4896C9.57503 13.4896 9.26665 13.5831 9.00436 13.7584C8.74206 13.9337 8.53763 14.1828 8.41691 14.4742C8.29618 14.7657 8.2646 15.0864 8.32615 15.3958C8.38769 15.7052 8.53959 15.9894 8.76265 16.2124C8.98572 16.4355 9.26992 16.5874 9.57932 16.6489C9.88872 16.7105 10.2094 16.6789 10.5009 16.5582C10.7923 16.4375 11.0414 16.233 11.2167 15.9707C11.3919 15.7084 11.4855 15.4 11.4855 15.0846C11.485 14.6617 11.3168 14.2563 11.0178 13.9573C10.7188 13.6582 10.3134 13.49 9.89049 13.4896ZM9.98746 5.83529C10.0665 5.83543 10.1454 5.84157 10.2235 5.85367C10.559 5.90726 10.8659 6.07441 11.0929 6.32716C11.3216 6.57809 11.4584 6.89923 11.4808 7.23801C11.4922 7.472 11.4499 7.7055 11.3571 7.92063C11.2644 8.13577 11.1237 8.32685 10.9458 8.47925C10.8579 8.55783 10.7642 8.63539 10.6652 8.71732L10.6472 8.73203C10.1369 9.11429 9.707 9.59333 9.3819 10.1418C9.07812 10.7385 8.8901 11.3874 8.82782 12.0541H10.9572C10.9966 11.7458 11.0892 11.4466 11.231 11.17C11.4316 10.854 11.6914 10.5796 11.9961 10.3621L12.0135 10.3477C12.1242 10.2561 12.2388 10.1612 12.3555 10.0562C12.7425 9.71475 13.0531 9.29556 13.2672 8.82599C13.4812 8.35643 13.5939 7.84701 13.5978 7.33098C13.5978 6.3732 13.2173 5.45464 12.54 4.77739C11.8628 4.10014 10.9442 3.71967 9.98646 3.71967C9.02868 3.71967 8.11012 4.10014 7.43287 4.77739C6.75562 5.45464 6.37515 6.3732 6.37515 7.33098H8.49111C8.49156 6.93432 8.64936 6.55405 8.92991 6.27363C9.21045 5.99321 9.5908 5.83555 9.98746 5.83529Z" fill="#915E31"/>
</svg>
