<svg width="197" height="137" viewBox="0 0 197 137" fill="none" xmlns="http://www.w3.org/2000/svg">
<g clip-path="url(#clip0_19_6649)">
<path d="M0 1.71686C0 1.71686 0.141968 90.5748 0.141968 93.0298C0.141968 95.4848 1.72201 97.3669 5.42401 95.9069C9.12601 94.4469 28.76 83.4069 28.76 83.4069C28.76 83.4069 63.42 114.949 92.16 134.348C97.891 138.216 101.904 137.317 105.802 133.87C109.7 130.423 161.867 91.6089 169.163 84.0409C169.163 84.0409 186.021 93.9878 191.444 95.8478C196.867 97.7078 197.444 95.0279 197.444 90.2479C197.444 85.4679 196.783 -29.0051 196.783 -29.0051L12.961 -18.6741L0 1.71686Z" fill="#915E31"/>
<path d="M6.72681 -15.8511C6.72681 -15.8511 10.5768 57.8649 11.5008 76.7729C11.6458 79.7419 12.9538 80.4129 15.8008 78.2089C19.6008 75.2619 25.5488 71.497 28.1078 69.278C29.2508 68.286 30.2218 68.5379 31.7138 69.9599C41.1188 78.9249 82.9608 116.751 95.2838 128.002C95.3627 128.089 95.4493 128.168 95.5428 128.239C97.2558 129.292 99.8588 130.171 101.922 128.239C101.99 128.176 102.06 128.113 102.13 128.049C114.442 116.823 156.304 78.4059 165.139 70.5999C166.557 69.3469 167.114 69.4089 168.626 70.4069C172.204 72.7709 179.902 77.9909 183.876 81.1519C185.134 82.1519 186.776 83.2789 186.857 79.9429C187.262 62.7289 190.727 -17.8511 190.727 -17.8511L6.72681 -15.8511Z" fill="#593A26"/>
<path d="M15.7267 13.1489C15.7267 13.1489 15.3507 58.3299 15.7267 70.2769C15.7997 72.5989 16.5517 72.4769 17.9057 70.9769C22.1898 66.3657 26.8094 62.0779 31.7267 58.1489C31.7267 58.1489 80.8977 110.624 98.7267 123.149C98.7267 123.149 154.222 70.5789 164.762 59.9709C165.503 59.2249 165.835 59.2349 166.741 60.0709C169.453 62.5789 177.093 69.3849 181.362 72.4709C183.003 73.6579 183.64 73.4879 183.641 71.2629C183.648 58.4339 181.727 7.14893 181.727 7.14893" stroke="#915E31" stroke-width="3" stroke-linecap="round" stroke-linejoin="round"/>
<path d="M85.7268 111.149C85.7268 111.149 91.4868 112.249 94.7268 113.149C94.7268 113.149 95.7188 103.315 98.7268 100.149C98.7268 100.149 100.96 108.042 101.727 113.149C105.11 111.138 108.842 109.781 112.727 109.149" stroke="#915E31" stroke-width="3" stroke-linecap="round" stroke-linejoin="round"/>
<path opacity="0.4" fill-rule="evenodd" clip-rule="evenodd" d="M187.445 62.35C187.156 70.0826 186.941 76.3744 186.857 79.943C186.776 83.279 185.134 82.152 183.876 81.152C181.887 79.5699 178.965 77.4721 176.094 75.4747L187.445 62.35ZM23.9158 -16.0378L92.0737 23.249L89.6998 71.691L49.7206 86.5692C41.6348 79.1867 34.8595 72.9587 31.7136 69.96C30.2216 68.538 29.2505 68.286 28.1075 69.278C26.7122 70.4879 24.3094 72.1575 21.7965 73.9035C19.7008 75.3596 17.5286 76.8689 15.8005 78.209C12.9535 80.413 11.6455 79.742 11.5005 76.773C10.5765 57.865 6.72656 -15.851 6.72656 -15.851L23.9158 -16.0378Z" fill="#915E31"/>
</g>
<defs>
<clipPath id="clip0_19_6649">
<rect width="197" height="137" fill="white"/>
</clipPath>
</defs>
</svg>
