<svg width="432" height="120" viewBox="0 0 432 120" fill="none" xmlns="http://www.w3.org/2000/svg">
<path d="M30.6282 109.873C30.4604 109.873 30.2934 109.871 30.1271 109.867C26.8371 109.847 23.6052 109.754 20.3463 109.486C20.2814 109.481 20.2169 109.475 20.1528 109.467C19.6219 109.422 19.0894 109.373 18.5552 109.318C17.911 109.243 17.314 108.996 16.8542 108.615C16.3943 108.235 16.0966 107.741 16.0057 107.208C15.9481 106.824 15.8942 106.44 15.844 106.056C15.8232 105.961 15.8066 105.865 15.7944 105.767C15.4322 102.911 15.2718 100.039 15.3141 97.1674V22.8353C15.2716 19.9632 15.4318 17.0915 15.7938 14.2348C15.806 14.1379 15.8226 14.0417 15.8434 13.9462C15.8936 13.5621 15.9475 13.1779 16.0051 12.7938C16.0959 12.2612 16.3937 11.7675 16.8536 11.3869C17.3134 11.0064 17.9104 10.7597 18.5546 10.6839C19.0916 10.6289 19.6276 10.5783 20.1626 10.532C20.2234 10.5249 20.2847 10.5189 20.3463 10.5138C23.6034 10.2465 26.834 10.1528 30.1216 10.133C30.2895 10.1285 30.4591 10.1265 30.6282 10.1265H401.371C401.54 10.1265 401.71 10.1265 401.878 10.133C405.166 10.1528 408.396 10.246 411.653 10.5138C411.714 10.5189 411.775 10.5248 411.837 10.5315C412.373 10.5764 412.909 10.6271 413.447 10.6834C414.091 10.7592 414.688 11.0059 415.148 11.3864C415.608 11.767 415.905 12.2607 415.996 12.7933C416.054 13.1791 416.108 13.5648 416.158 13.9503C416.179 14.0441 416.195 14.1386 416.207 14.2338C416.569 17.0908 416.729 19.9629 416.685 22.8353V97.1694C416.728 100.041 416.568 102.913 416.206 105.77C416.194 105.865 416.178 105.96 416.157 106.053C416.107 106.439 416.053 106.825 415.995 107.21C415.904 107.743 415.606 108.237 415.146 108.617C414.687 108.998 414.09 109.245 413.445 109.32C412.911 109.375 412.378 109.425 411.846 109.469C411.782 109.477 411.718 109.483 411.654 109.488C408.395 109.756 405.16 109.849 401.873 109.869C401.706 109.873 401.54 109.875 401.372 109.875L30.6282 109.873Z" fill="#413228"/>
<path d="M409.947 13.6709H22.0523C20.0224 13.6709 18.3769 15.031 18.3769 16.7089V103.291C18.3769 104.969 20.0224 106.329 22.0523 106.329H409.947C411.977 106.329 413.622 104.969 413.622 103.291V16.7089C413.622 15.031 411.977 13.6709 409.947 13.6709Z" fill="#513F35"/>
<path opacity="0.302" d="M43.9729 114.937C42.8466 114.937 41.7315 114.753 40.6909 114.397C39.6504 114.041 38.7049 113.519 37.9085 112.861L1.07629 82.415C0.387345 81.8455 0.000208111 81.0731 0 80.2677V69.367C0 68.8298 0.258149 68.3147 0.717661 67.9348C1.17717 67.555 1.80041 67.3416 2.45026 67.3416H429.549C430.199 67.3416 430.822 67.555 431.282 67.9348C431.741 68.3147 431.999 68.8298 431.999 69.367V80.2672C431.999 80.6662 431.904 81.0613 431.72 81.4299C431.535 81.7985 431.264 82.1334 430.922 82.4155L394.09 112.861C393.294 113.519 392.348 114.041 391.308 114.397C390.267 114.753 389.152 114.937 388.026 114.937H43.9729ZM2.45026 52.6581C1.80041 52.6581 1.17717 52.4447 0.717661 52.0649C0.258149 51.6851 0 51.1699 0 50.6328V39.7325C2.26304e-05 39.3335 0.0951494 38.9385 0.279923 38.5699C0.464697 38.2012 0.735497 37.8663 1.07688 37.5842L37.9091 7.13918C38.7055 6.48096 39.651 5.95885 40.6915 5.60266C41.7321 5.24647 42.8473 5.06317 43.9735 5.06323H388.026C389.153 5.06317 390.268 5.24647 391.308 5.60266C392.349 5.95885 393.294 6.48096 394.091 7.13918L430.923 37.5842C431.265 37.8663 431.535 38.2012 431.72 38.5699C431.905 38.9385 432 39.3335 432 39.7325V50.6328C432 51.1699 431.742 51.6851 431.282 52.0649C430.823 52.4447 430.2 52.6581 429.55 52.6581H2.45026Z" fill="#513F35"/>
<path d="M421.586 43.5439H10.4136V78.4806H421.586V43.5439Z" fill="#563925"/>
<path d="M419.13 43.5439H12.8638V78.4806H419.13V43.5439Z" fill="#8F5D2F"/>
<path d="M416.682 43.5439H15.3141V78.4806H416.682V43.5439Z" fill="#734B2A"/>
<path opacity="0.702" d="M400.146 67.3417V52.6582H403.209V67.3417H400.146ZM28.7905 67.3417V52.6582H31.8533V67.3417H28.7905Z" fill="#B04D26"/>
<path d="M400.14 43.5439H31.8533V78.4806H400.14V43.5439Z" fill="#713324"/>
<path d="M424.798 37.5844L387.965 7.13943C387.168 6.4812 386.223 5.9591 385.182 5.6029C384.142 5.24671 383.026 5.06341 381.9 5.06348H50.0992C48.9729 5.06341 47.8577 5.24671 46.8172 5.6029C45.7766 5.9591 44.8312 6.4812 44.0348 7.13943L7.20194 37.5844C6.86067 37.8666 6.58995 38.2015 6.40528 38.5701C6.22061 38.9387 6.1256 39.3338 6.12566 39.7328V50.633C6.12566 51.1702 6.38381 51.6853 6.84332 52.0652C7.30283 52.445 7.92606 52.6584 8.57591 52.6584H423.424C424.073 52.6584 424.697 52.445 425.156 52.0652C425.616 51.6853 425.874 51.1702 425.874 50.633V39.7328C425.874 39.3338 425.779 38.9387 425.594 38.5701C425.409 38.2015 425.139 37.8666 424.798 37.5844Z" fill="#593A26"/>
<path d="M51.1319 1.77975L9.6522 36.0653C9.31092 36.3474 9.0402 36.6823 8.85554 37.0509C8.67087 37.4196 8.57585 37.8146 8.57591 38.2136V48.1012C8.57591 48.6384 8.83406 49.1535 9.29357 49.5333C9.75309 49.9131 10.3763 50.1265 11.0262 50.1265H420.973C421.623 50.1265 422.246 49.9131 422.706 49.5333C423.165 49.1535 423.424 48.6384 423.424 48.1012V38.2136C423.424 37.8146 423.329 37.4196 423.144 37.0509C422.959 36.6823 422.689 36.3474 422.347 36.0653L380.868 1.77975C379.49 0.640274 377.62 7.55688e-05 375.67 0H56.3295C54.38 7.55688e-05 52.5104 0.640274 51.1319 1.77975Z" fill="#8F5D2F"/>
<path d="M51.1319 1.77975L9.6522 36.0653C9.31092 36.3474 9.0402 36.6823 8.85554 37.0509C8.67087 37.4196 8.57585 37.8146 8.57591 38.2136V48.1012C8.57591 48.6384 8.83406 49.1535 9.29357 49.5333C9.75309 49.9131 10.3763 50.1265 11.0262 50.1265H420.973C421.623 50.1265 422.246 49.9131 422.706 49.5333C423.165 49.1535 423.424 48.6384 423.424 48.1012V38.2136C423.424 37.8146 423.329 37.4196 423.144 37.0509C422.959 36.6823 422.689 36.3474 422.347 36.0653L380.868 1.77975C379.49 0.640274 377.62 7.55688e-05 375.67 0H56.3295C54.38 7.55688e-05 52.5104 0.640274 51.1319 1.77975Z" fill="#8F5D2F"/>
<path opacity="0.6" d="M369.094 50.1265L372.769 46.5822L371.544 44.5569H380.12L372.769 48.6075L373.994 50.1265H369.094ZM56.3559 46.5822L51.4554 44.5569H74.7328L52.6805 48.6075L56.3559 46.5822Z" fill="#593A26"/>
<path d="M381.157 54.6834H387.895L382.994 55.6961L381.157 54.6834ZM52.6805 54.6834H71.0574L61.8689 55.6961L52.6805 54.6834ZM394.02 54.6834H36.1412V28.3832C36.1413 27.7119 36.4638 27.0681 37.038 26.5933L54.2253 12.3873C54.5098 12.1521 54.8475 11.9656 55.2191 11.8383C55.5908 11.711 55.9891 11.6455 56.3914 11.6455H375.608C376.01 11.6454 376.408 11.7109 376.78 11.8381C377.152 11.9653 377.49 12.1517 377.774 12.3868L394.961 26.5928C395.535 27.0676 395.857 27.7114 395.857 28.3827V54.6834H394.02Z" fill="#44342A"/>
<path d="M392.183 52.6582H39.8166C39.4917 52.6582 39.1801 52.5515 38.9503 52.3616C38.7206 52.1717 38.5915 51.9141 38.5915 51.6456V29.6927C38.5934 29.1559 38.8514 28.6414 39.3094 28.2608L55.6306 14.7702C55.8576 14.5816 56.1276 14.4321 56.4249 14.3303C56.7223 14.2286 57.0411 14.1765 57.3629 14.1773H67.382L70.4448 15.1899L73.5076 14.1773H363.392L366.455 15.1899L368.088 14.1773H374.636C374.958 14.1764 375.277 14.2285 375.575 14.3303C375.872 14.4322 376.142 14.5819 376.369 14.7707L378.505 16.5357L377.481 18.2279L380.04 17.8051L392.69 28.2613C393.148 28.6418 393.406 29.1563 393.408 29.6932V51.6456C393.408 51.9141 393.279 52.1717 393.049 52.3616C392.819 52.5515 392.508 52.6582 392.183 52.6582Z" fill="#503E34"/>
<path d="M392.183 52.6582H39.8166C39.4917 52.6582 39.1801 52.5515 38.9503 52.3616C38.7206 52.1717 38.5915 51.9141 38.5915 51.6456V29.6927C38.5934 29.1559 38.8514 28.6414 39.3094 28.2608L55.6306 14.7702C55.8576 14.5816 56.1276 14.4321 56.4249 14.3303C56.7223 14.2286 57.0411 14.1765 57.3629 14.1773H67.382L70.4448 15.1899L73.5076 14.1773H363.392L366.455 15.1899L368.088 14.1773H374.636C374.958 14.1764 375.277 14.2285 375.575 14.3303C375.872 14.4322 376.142 14.5819 376.369 14.7707L378.505 16.5357L377.481 18.2279L380.04 17.8051L392.69 28.2613C393.148 28.6418 393.406 29.1563 393.408 29.6932V51.6456C393.408 51.9141 393.279 52.1717 393.049 52.3616C392.819 52.5515 392.508 52.6582 392.183 52.6582Z" fill="white"/>
<path opacity="0.302" d="M391.57 41.7719C391.57 41.6217 391.624 41.475 391.725 41.3501C391.826 41.2253 391.969 41.128 392.137 41.0705C392.305 41.013 392.49 40.998 392.668 41.0273C392.846 41.0566 393.01 41.1289 393.139 41.2351C393.267 41.3412 393.355 41.4765 393.39 41.6238C393.426 41.771 393.407 41.9237 393.338 42.0624C393.268 42.2012 393.151 42.3197 392.999 42.4031C392.848 42.4866 392.671 42.5311 392.489 42.5311C392.245 42.5311 392.012 42.4511 391.839 42.3087C391.667 42.1664 391.57 41.9733 391.57 41.7719ZM38.5915 41.7719C38.5915 41.6217 38.6454 41.475 38.7464 41.3501C38.8473 41.2253 38.9908 41.128 39.1587 41.0705C39.3266 41.013 39.5114 40.998 39.6896 41.0273C39.8679 41.0566 40.0316 41.1289 40.1601 41.2351C40.2886 41.3412 40.3761 41.4765 40.4115 41.6238C40.447 41.771 40.4288 41.9237 40.3592 42.0624C40.2897 42.2012 40.1719 42.3197 40.0208 42.4031C39.8697 42.4866 39.6921 42.5311 39.5103 42.5311C39.2666 42.5311 39.0329 42.4511 38.8606 42.3087C38.6883 42.1664 38.5915 41.9733 38.5915 41.7719Z" fill="#503E34"/>
<path d="M415.498 43.5444V39.9211L406.309 32.3262V32.9115C406.018 32.571 405.579 32.3363 405.084 32.2558V37.4684C405.084 37.737 404.955 37.9946 404.725 38.1845C404.496 38.3744 404.184 38.4811 403.859 38.4811C403.534 38.4811 403.223 38.3744 402.993 38.1845C402.763 37.9946 402.634 37.737 402.634 37.4684V29.8735C402.309 29.8735 401.998 29.7668 401.768 29.5769C401.538 29.387 401.409 29.1294 401.409 28.8608C401.409 28.5923 401.538 28.3347 401.768 28.1448C401.998 27.9549 402.309 27.8482 402.634 27.8482H403.892C404.209 27.8533 404.512 27.9602 404.736 28.1464L417.597 38.7758C417.729 38.8852 417.83 39.0182 417.891 39.1646C417.952 39.3111 417.971 39.4671 417.948 39.6208V43.5444C417.948 43.8129 417.819 44.0705 417.589 44.2604C417.36 44.4503 417.048 44.557 416.723 44.557C416.398 44.557 416.086 44.4503 415.857 44.2604C415.627 44.0705 415.498 43.8129 415.498 43.5444ZM395.283 43.038C395.079 43.0381 394.879 42.9962 394.699 42.9159C394.52 42.8357 394.368 42.7198 394.257 42.5786C394.145 42.4375 394.078 42.2756 394.062 42.1077C394.045 41.9397 394.079 41.771 394.162 41.6168C394.093 41.5084 394.058 41.3881 394.058 41.2659V25.8229C394.43 25.822 394.793 25.9147 395.099 26.0887L377.519 9.62036C378.38 9.62218 379.23 9.77963 380.009 10.0816C380.789 10.3837 381.479 10.8229 382.032 11.3687L394.453 23.5484C395.387 24.4696 395.898 25.6336 395.896 26.8355L395.692 26.6452C395.827 26.8606 395.897 27.0995 395.896 27.3419V37.9748C395.896 38.7805 396.283 39.5532 396.972 40.1229C397.662 40.6926 398.596 41.0127 399.571 41.0127H413.66C413.985 41.0127 414.297 41.1194 414.526 41.3093C414.756 41.4993 414.885 41.7568 414.885 42.0254C414.885 42.294 414.756 42.5515 414.526 42.7414C414.297 42.9313 413.985 43.038 413.66 43.038H395.283ZM15.9267 43.038C15.7257 42.9955 15.5151 42.9955 15.3141 43.038C14.9892 43.038 14.6776 42.9313 14.4478 42.7414C14.2181 42.5515 14.089 42.294 14.089 42.0254V37.5479L26.0756 27.6401C26.1898 27.5453 26.3256 27.4701 26.4751 27.4189C26.6246 27.3677 26.7849 27.3416 26.9467 27.3419H29.4031V27.3601C29.913 27.4216 30.3792 27.6325 30.7166 27.9545C31.054 28.2765 31.24 28.688 31.2408 29.114V36.7089C31.2408 37.1789 31.0149 37.6297 30.6128 37.962C30.2107 38.2944 29.6654 38.4811 29.0968 38.4811C28.5282 38.4811 27.9829 38.2944 27.5808 37.962C27.1787 37.6297 26.9528 37.1789 26.9528 36.7089V33.4178C26.9528 33.0801 26.5479 32.2533 25.7981 32.2533C25.5388 32.2828 25.2897 32.3565 25.0667 32.4699C24.8437 32.5832 24.6516 32.7335 24.5026 32.9115V31.8988L26.9528 29.8735V29.7945L16.3996 38.5176C16.4914 38.6625 16.5393 38.8238 16.5392 38.9874V40.0056C16.541 40.2732 16.6709 40.5294 16.9005 40.7181C17.13 40.9068 17.4406 41.0127 17.7644 41.0127H30.6282C31.6026 41.0118 32.5368 40.6914 33.2259 40.1219C33.9149 39.5524 34.3025 38.7802 34.3036 37.9748V26.3292C34.3035 26.2098 34.3203 26.0909 34.3538 25.9748C34.5053 25.0109 34.9951 24.1049 35.7627 23.3687L48.3001 11.3449C48.8648 10.8038 49.564 10.3696 50.35 10.072C51.1361 9.7744 51.9905 9.62036 52.8551 9.62036L36.1413 24.9327V41.2659C36.1414 41.423 36.0825 41.5763 35.9728 41.7046C35.8631 41.8329 35.7079 41.93 35.5287 41.9823C35.5287 41.9965 35.5287 42.0109 35.5287 42.0254C35.5287 42.294 35.3996 42.5515 35.1699 42.7414C34.9401 42.9313 34.6285 43.038 34.3036 43.038H15.9267Z" fill="#B07636"/>
<path fill-rule="evenodd" clip-rule="evenodd" d="M414.475 36.1958L417.543 38.7319L415.498 40L415.498 39.921L415.471 39.8985L414.475 36.1958ZM403.892 27.8481C404.057 27.8508 404.218 27.8809 404.366 27.9355L402.634 29.3671H401.573C401.466 29.2145 401.409 29.0401 401.409 28.8608C401.409 28.5922 401.538 28.3347 401.768 28.1447C401.997 27.9553 402.307 27.8487 402.631 27.8481L403.892 27.8481ZM394.699 42.9159C394.879 42.9961 395.079 43.0381 395.283 43.038H396.586L399.071 40.9844C398.281 40.8947 397.543 40.5942 396.972 40.1229C396.641 39.8494 396.38 39.5292 396.198 39.1811L394.058 40.9499V41.2658C394.058 41.388 394.093 41.5084 394.162 41.6167C394.079 41.7709 394.045 41.9396 394.062 42.1076C394.078 42.2755 394.145 42.4374 394.257 42.5786C394.368 42.7197 394.52 42.8357 394.699 42.9159ZM33.8485 43.038L31.3299 40.9562C32.043 40.8409 32.7046 40.5527 33.2259 40.1218C33.6271 39.7902 33.9261 39.3898 34.1061 38.9542L36.1413 40.6365V41.2658C36.1414 41.423 36.0825 41.5763 35.9728 41.7046C35.8631 41.8329 35.7079 41.9299 35.5287 41.9823V42.0253C35.5287 42.2939 35.3996 42.5515 35.1699 42.7414C34.9401 42.9313 34.6285 43.038 34.3036 43.038H33.8485ZM29.4031 27.3418V27.36C29.7167 27.3978 30.0138 27.4922 30.2745 27.6341L28.7905 28.8608L27.5654 29.3671L25.7758 27.8879L26.0756 27.64C26.1898 27.5452 26.3256 27.4701 26.4751 27.4189C26.6226 27.3684 26.7806 27.3422 26.9402 27.3418L29.4031 27.3418ZM14.089 37.5478L16.4751 35.5755L14.089 40.5063L14.089 37.5478Z" fill="#CF9837"/>
<path d="M416.073 44.557H393.408C394.058 44.557 394.681 44.3436 395.14 43.9638C395.6 43.584 395.858 43.0689 395.858 42.5317V39.4937C395.858 40.2995 396.245 41.0722 396.935 41.6419C397.624 42.2116 398.559 42.5317 399.533 42.5317H413.01C413.335 42.5317 413.646 42.425 413.876 42.2351C414.106 42.0452 414.235 41.7876 414.235 41.5191V39.9216L407.497 34.352V34.4305C405.869 32.8963 405.047 34.4629 405.047 34.9368V37.4684C405.047 37.737 404.917 37.9946 404.688 38.1845C404.458 38.3744 404.146 38.4811 403.821 38.4811C403.496 38.4811 403.185 38.3744 402.955 38.1845C402.725 37.9946 402.596 37.737 402.596 37.4684V29.9089C402.595 29.8696 402.596 29.8302 402.601 29.791C402.626 29.5375 402.765 29.3012 402.991 29.1289C403.217 28.9566 403.514 28.8609 403.821 28.8608H403.854C404.172 28.8659 404.474 28.9729 404.699 29.1591L417.559 39.7889C417.709 39.9129 417.818 40.0669 417.874 40.2359C417.931 40.4049 417.934 40.5832 417.883 40.7535C417.901 40.8391 417.91 40.9258 417.91 41.0127V43.038C417.91 43.1318 417.9 43.2254 417.879 43.3175C417.92 43.4659 417.921 43.6201 417.88 43.7685C417.839 43.917 417.758 44.056 417.644 44.1751C417.529 44.2942 417.383 44.3904 417.217 44.4566C417.051 44.5227 416.869 44.557 416.685 44.557H416.073ZM36.1412 44.557V42.5317C36.1412 43.0689 36.3994 43.584 36.8589 43.9638C37.3184 44.3436 37.9417 44.557 38.5915 44.557H36.1412ZM15.9266 44.557H15.3141C15.1298 44.557 14.9479 44.5227 14.7819 44.4565C14.616 44.3904 14.4702 44.2941 14.3555 44.175C14.2407 44.0558 14.16 43.9167 14.1192 43.7682C14.0785 43.6197 14.0788 43.4655 14.1202 43.317C14.0995 43.225 14.089 43.1316 14.089 43.038V41.0127C14.0888 40.926 14.0977 40.8395 14.1153 40.754C14.0643 40.5837 14.0673 40.4054 14.1242 40.2364C14.1811 40.0674 14.2899 39.9134 14.44 39.7894L27.3001 29.1596C27.5244 28.9733 27.8275 28.8663 28.1455 28.8613H28.1779C28.4905 28.8609 28.7915 28.9592 29.0192 29.1362C29.247 29.3131 29.3843 29.5553 29.403 29.8132C29.4055 29.844 29.4055 29.8747 29.403 29.9054V37.4684C29.403 37.737 29.274 37.9946 29.0442 38.1845C28.8144 38.3744 28.5028 38.4811 28.1779 38.4811C27.853 38.4811 27.5414 38.3744 27.3116 38.1845C27.0819 37.9946 26.9528 37.737 26.9528 37.4684V34.9368C26.9528 34.4629 26.1313 32.8963 24.5025 34.4305V34.3515L17.7643 39.9211V41.5191C17.7643 41.7876 17.8934 42.0452 18.1232 42.2351C18.3529 42.425 18.6645 42.5317 18.9895 42.5317H32.4659C33.4406 42.5317 34.3755 42.2116 35.0647 41.6419C35.754 41.0722 36.1412 40.2995 36.1412 39.4937V44.557H15.9266Z" fill="#593A26"/>
<path d="M424.798 82.4157L387.965 112.861C387.168 113.519 386.223 114.041 385.182 114.397C384.142 114.753 383.026 114.937 381.9 114.937H50.0992C48.9729 114.937 47.8577 114.753 46.8172 114.397C45.7766 114.041 44.8312 113.519 44.0348 112.861L7.20194 82.4157C6.86067 82.1336 6.58995 81.7986 6.40528 81.43C6.22061 81.0614 6.1256 80.6663 6.12566 80.2674V69.3671C6.12566 68.83 6.38381 68.3148 6.84332 67.935C7.30283 67.5552 7.92606 67.3418 8.57591 67.3418H423.424C424.073 67.3418 424.697 67.5552 425.156 67.935C425.616 68.3148 425.874 68.83 425.874 69.3671V80.2674C425.874 80.6663 425.779 81.0614 425.594 81.43C425.409 81.7986 425.139 82.1336 424.798 82.4157Z" fill="#593A26"/>
<path d="M51.1319 118.221L9.6522 83.9353C9.31092 83.6531 9.0402 83.3182 8.85554 82.9496C8.67087 82.581 8.57585 82.1859 8.57591 81.7869V71.8993C8.57591 71.3622 8.83406 70.847 9.29357 70.4672C9.75309 70.0874 10.3763 69.874 11.0262 69.874H420.973C421.623 69.874 422.246 70.0874 422.706 70.4672C423.165 70.847 423.424 71.3622 423.424 71.8993V81.7869C423.424 82.1859 423.329 82.581 423.144 82.9496C422.959 83.3182 422.689 83.6531 422.347 83.9353L380.868 118.221C379.49 119.36 377.62 120 375.67 120.001H56.3295C54.38 120 52.5104 119.36 51.1319 118.221Z" fill="#8F5D2F"/>
<path d="M51.1319 118.221L9.6522 83.9353C9.31092 83.6531 9.0402 83.3182 8.85554 82.9496C8.67087 82.581 8.57585 82.1859 8.57591 81.7869V71.8993C8.57591 71.3622 8.83406 70.847 9.29357 70.4672C9.75309 70.0874 10.3763 69.874 11.0262 69.874H420.973C421.623 69.874 422.246 70.0874 422.706 70.4672C423.165 70.847 423.424 71.3622 423.424 71.8993V81.7869C423.424 82.1859 423.329 82.581 423.144 82.9496C422.959 83.3182 422.689 83.6531 422.347 83.9353L380.868 118.221C379.49 119.36 377.62 120 375.67 120.001H56.3295C54.38 120 52.5104 119.36 51.1319 118.221Z" fill="#8F5D2F"/>
<path opacity="0.6" d="M380.544 75.4436L381.769 73.4183L378.094 69.874H382.994L381.769 71.393L389.12 75.4436H380.544ZM51.4554 75.4436L56.3559 73.4183L52.6805 71.393L74.7328 75.4436H51.4554Z" fill="#593A26"/>
<path d="M56.3914 108.354C55.9891 108.354 55.5908 108.289 55.2192 108.162C54.8475 108.035 54.5098 107.848 54.2253 107.613L37.038 93.4065C36.7536 93.1713 36.5281 92.8922 36.3742 92.585C36.2203 92.2778 36.1412 91.9486 36.1412 91.6161V65.3164H52.6805L61.8689 64.3037L71.0574 65.3164H381.157L382.994 64.3037L387.895 65.3164H395.858V91.6166C395.858 92.2879 395.536 92.9317 394.961 93.4065L377.775 107.613C377.49 107.848 377.152 108.035 376.781 108.162C376.409 108.289 376.011 108.354 375.609 108.354H56.3914Z" fill="#44342A"/>
<path d="M363.392 105.823H73.5076L70.4448 104.81L67.382 105.823H57.3629C57.0409 105.823 56.722 105.771 56.4245 105.67C56.127 105.568 55.857 105.418 55.63 105.229L39.3088 91.7392C39.0808 91.5516 38.9 91.3284 38.7768 91.0826C38.6537 90.8368 38.5907 90.5733 38.5915 90.3073V68.3545C38.5915 68.0859 38.7206 67.8283 38.9504 67.6384C39.1801 67.4485 39.4917 67.3418 39.8166 67.3418H392.183C392.508 67.3418 392.819 67.4485 393.049 67.6384C393.279 67.8283 393.408 68.0859 393.408 68.3545V90.3073C393.409 90.5735 393.346 90.8371 393.222 91.083C393.099 91.3289 392.918 91.5521 392.69 91.7397L380.04 102.195L377.481 101.772L378.505 103.464L376.369 105.229C376.142 105.418 375.872 105.568 375.575 105.67C375.277 105.772 374.958 105.824 374.636 105.823H368.088L366.455 104.81L363.392 105.823Z" fill="#503E34"/>
<path d="M363.392 105.823H73.5076L70.4448 104.81L67.382 105.823H57.3629C57.0409 105.823 56.722 105.771 56.4245 105.67C56.127 105.568 55.857 105.418 55.63 105.229L39.3088 91.7392C39.0808 91.5516 38.9 91.3284 38.7768 91.0826C38.6537 90.8368 38.5907 90.5733 38.5915 90.3073V68.3545C38.5915 68.0859 38.7206 67.8283 38.9504 67.6384C39.1801 67.4485 39.4917 67.3418 39.8166 67.3418H392.183C392.508 67.3418 392.819 67.4485 393.049 67.6384C393.279 67.8283 393.408 68.0859 393.408 68.3545V90.3073C393.409 90.5735 393.346 90.8371 393.222 91.083C393.099 91.3289 392.918 91.5521 392.69 91.7397L380.04 102.195L377.481 101.772L378.505 103.464L376.369 105.229C376.142 105.418 375.872 105.568 375.575 105.67C375.277 105.772 374.958 105.824 374.636 105.823H368.088L366.455 104.81L363.392 105.823Z" fill="white"/>
<path opacity="0.302" d="M391.57 78.2275C391.57 78.0773 391.624 77.9305 391.725 77.8057C391.826 77.6808 391.969 77.5835 392.137 77.5261C392.305 77.4686 392.49 77.4536 392.668 77.4828C392.846 77.5121 393.01 77.5844 393.139 77.6906C393.267 77.7968 393.355 77.9321 393.39 78.0793C393.426 78.2266 393.407 78.3793 393.338 78.518C393.268 78.6567 393.151 78.7753 392.999 78.8587C392.848 78.9421 392.671 78.9867 392.489 78.9867C392.245 78.9867 392.012 78.9067 391.839 78.7643C391.667 78.6219 391.57 78.4288 391.57 78.2275ZM38.5915 78.2275C38.5915 78.0773 38.6454 77.9305 38.7464 77.8057C38.8473 77.6808 38.9908 77.5835 39.1587 77.5261C39.3266 77.4686 39.5114 77.4536 39.6896 77.4828C39.8679 77.5121 40.0316 77.5844 40.1601 77.6906C40.2886 77.7968 40.3761 77.9321 40.4115 78.0793C40.447 78.2266 40.4288 78.3793 40.3592 78.518C40.2897 78.6567 40.1719 78.7753 40.0208 78.8587C39.8697 78.9421 39.6921 78.9867 39.5103 78.9867C39.2666 78.9867 39.0329 78.9067 38.8606 78.7643C38.6883 78.6219 38.5915 78.4288 38.5915 78.2275Z" fill="#503E34"/>
<path d="M54.0802 111.392C53.2154 111.392 52.3608 111.238 51.5746 110.94C50.7884 110.643 50.0892 110.208 49.5246 109.667L49.203 109.358C48.8732 109.15 48.5704 108.914 48.2995 108.654L35.7621 96.6309C35.4188 96.3017 35.1292 95.9368 34.9008 95.5453C34.7351 95.4432 34.5966 95.314 34.4939 95.1657C34.3911 95.0175 34.3264 94.8533 34.3036 94.6835V81.9468C34.2729 81.1564 33.8729 80.4066 33.1876 79.8548C32.5023 79.303 31.5849 78.9921 30.6282 78.9874H17.7552C17.4412 78.989 17.14 79.0903 16.9137 79.2703C16.6874 79.4502 16.5534 79.6951 16.5392 79.9544V79.9767C16.5392 79.9843 16.5392 79.9924 16.5392 80V81.0127C16.54 81.1762 16.492 81.3374 16.3996 81.482L26.9528 90.2051V90.1266L24.5026 88.1013V87.0886C24.6514 87.2665 24.8434 87.4169 25.0663 87.5302C25.2893 87.6435 25.5383 87.7173 25.7975 87.7468C25.9773 87.7374 26.1511 87.6901 26.3026 87.6096C26.4541 87.529 26.5781 87.4179 26.6631 87.2866C26.8292 87.0755 26.9288 86.8333 26.9528 86.5823V83.2911C26.9528 82.8211 27.1787 82.3704 27.5808 82.0381C27.9829 81.7057 28.5282 81.519 29.0968 81.519C29.6654 81.519 30.2107 81.7057 30.6128 82.0381C31.0149 82.3704 31.2408 82.8211 31.2408 83.2911V90.8861C31.24 91.312 31.054 91.7236 30.7166 92.0456C30.3792 92.3675 29.913 92.5785 29.4031 92.64V92.6582H26.9467C26.7849 92.6585 26.6246 92.6323 26.4751 92.5811C26.3256 92.53 26.1898 92.4548 26.0756 92.36L14.089 82.4522V77.9747C14.0889 77.8201 14.1317 77.6676 14.214 77.5288C14.2963 77.39 14.4159 77.2686 14.5637 77.1739C14.7116 77.0793 14.8837 77.0138 15.0668 76.9826C15.25 76.9514 15.4393 76.9553 15.6204 76.9939C15.7205 76.9728 15.8234 76.9621 15.9267 76.962H34.3036C34.5208 76.9621 34.7341 77.0099 34.9217 77.1006C35.1092 77.1913 35.2641 77.3215 35.3707 77.478C35.5859 77.5071 35.7816 77.5985 35.9228 77.7358C36.0639 77.8732 36.1414 78.0476 36.1413 78.2279V82.1509C36.3675 81.769 36.652 81.4127 36.9879 81.0906L49.5252 69.0674C50.0897 68.526 50.7888 68.0916 51.5749 67.7938C52.361 67.496 53.2155 67.3418 54.0802 67.3418H377.91C378.775 67.3417 379.629 67.4958 380.416 67.7936C381.202 68.0914 381.901 68.5259 382.466 69.0674L395.015 81.1018C395.35 81.4239 395.635 81.7802 395.861 82.162V78.7342C395.861 78.612 395.896 78.4916 395.965 78.3833C395.883 78.2293 395.848 78.0608 395.865 77.893C395.881 77.7253 395.948 77.5636 396.059 77.4225C396.17 77.2814 396.322 77.1654 396.5 77.085C396.679 77.0046 396.88 76.9624 397.083 76.962H415.46C415.785 76.962 416.097 77.0687 416.326 77.2587C416.556 77.4486 416.685 77.7061 416.685 77.9747C416.685 78.2433 416.556 78.5008 416.326 78.6907C416.097 78.8806 415.785 78.9874 415.46 78.9874H401.371C400.396 78.9874 399.462 79.3074 398.772 79.8772C398.083 80.4469 397.696 81.2196 397.696 82.0253V92.6582C397.696 92.9003 397.626 93.1389 397.492 93.3539L397.696 93.1645C397.698 94.3671 397.186 95.5316 396.25 96.4527L383.829 108.633C383.465 108.99 383.042 109.303 382.572 109.562L382.463 109.668C381.898 110.209 381.199 110.643 380.414 110.94C379.628 111.238 378.774 111.392 377.91 111.392H54.0802ZM396.471 94.3109L396.899 93.9114C396.767 93.9866 396.623 94.047 396.471 94.0911V94.3109ZM405.659 92.1519H404.434C404.109 92.1519 403.797 92.0452 403.568 91.8553C403.338 91.6654 403.209 91.4078 403.209 91.1392C403.209 90.8707 403.338 90.6131 403.568 90.4232C403.797 90.2333 404.109 90.1266 404.434 90.1266V82.5317C404.434 82.2631 404.563 82.0055 404.793 81.8156C405.023 81.6257 405.334 81.519 405.659 81.519C405.984 81.519 406.296 81.6257 406.525 81.8156C406.755 82.0055 406.884 82.2631 406.884 82.5317V87.7443C407.379 87.6637 407.818 87.429 408.109 87.0886V87.6734L417.298 80.0785V76.4557C417.298 76.1871 417.427 75.9296 417.657 75.7397C417.886 75.5498 418.198 75.4431 418.523 75.4431C418.848 75.4431 419.16 75.5498 419.389 75.7397C419.619 75.9296 419.748 76.1871 419.748 76.4557V80.3787C419.771 80.5323 419.751 80.6883 419.691 80.8346C419.63 80.981 419.529 81.1139 419.397 81.2233L406.536 91.8531C406.422 91.9479 406.286 92.0231 406.137 92.0743C405.987 92.1255 405.827 92.1517 405.665 92.1514L405.659 92.1519Z" fill="#B07636"/>
<path fill-rule="evenodd" clip-rule="evenodd" d="M399.071 79.0153C398.281 79.105 397.543 79.4054 396.972 79.8768C396.641 80.1503 396.38 80.4705 396.198 80.8187L394.061 79.0521V78.7338C394.06 78.6116 394.096 78.4912 394.165 78.3829C394.082 78.2289 394.048 78.0604 394.065 77.8927C394.081 77.7249 394.148 77.5632 394.259 77.4221C394.37 77.2811 394.522 77.1651 394.7 77.0847C394.879 77.0043 395.08 76.962 395.283 76.9617H396.586L399.071 79.0153ZM33.1876 79.8544C33.605 80.1905 33.9165 80.6001 34.1033 81.0475L36.1413 79.363V78.2275C36.1414 78.0472 36.0639 77.8728 35.9228 77.7355C35.7816 77.5981 35.5859 77.5067 35.3707 77.4776C35.2641 77.3211 35.1092 77.1909 34.9217 77.1002C34.7341 77.0096 34.5208 76.9617 34.3036 76.9617H33.8482L31.3271 79.0455C32.024 79.16 32.6716 79.4389 33.1876 79.8544ZM14.089 79.4931V82.4518L16.4753 84.4243L14.089 79.4931ZM26.9195 92.6577C26.767 92.6551 26.6162 92.6291 26.4751 92.5808C26.3256 92.5296 26.1898 92.4544 26.0756 92.3596L25.7757 92.1117L27.5654 90.6323L28.7905 91.1387L30.2747 92.3654C30.0139 92.5074 29.7168 92.6018 29.4031 92.6396V92.6577H26.9195ZM401.768 91.8549C401.992 92.0401 402.294 92.1462 402.61 92.1513H403.862L403.865 92.151C404.027 92.1513 404.187 92.1251 404.337 92.0739C404.347 92.0706 404.356 92.0672 404.366 92.0637L402.634 90.6323H401.573C401.466 90.785 401.409 90.9595 401.409 91.1389C401.409 91.4074 401.538 91.665 401.768 91.8549ZM417.543 81.2672L414.475 83.8028L415.471 80.1006L415.498 80.0781V79.9996L415.498 79.9994L417.543 81.2672Z" fill="#CF9837"/>
<path d="M403.825 91.1391C403.516 91.139 403.218 91.0426 402.992 90.869C402.765 90.6954 402.626 90.4574 402.603 90.2029C402.599 90.1656 402.598 90.1283 402.599 90.091V82.5315C402.599 82.2629 402.728 82.0053 402.958 81.8154C403.188 81.6255 403.5 81.5188 403.825 81.5188C404.149 81.5188 404.461 81.6255 404.691 81.8154C404.921 82.0053 405.05 82.2629 405.05 82.5315V85.0631C405.05 85.5365 405.872 87.1036 407.5 85.5694V85.6484L414.238 80.0788V78.4808C414.238 78.2123 414.109 77.9547 413.879 77.7648C413.649 77.5749 413.338 77.4682 413.013 77.4682H399.537C398.562 77.4682 397.627 77.7883 396.938 78.358C396.248 78.9277 395.861 79.7004 395.861 80.5062V77.4682C395.861 76.931 395.603 76.4159 395.143 76.0361C394.684 75.6563 394.061 75.4429 393.411 75.4429H416.688C416.873 75.4429 417.054 75.4772 417.22 75.5433C417.386 75.6095 417.532 75.7057 417.647 75.8248C417.761 75.9439 417.842 76.0829 417.883 76.2314C417.924 76.3798 417.923 76.534 417.882 76.6824C417.902 76.7746 417.911 76.8682 417.91 76.9619V78.9872C417.911 79.0739 417.902 79.1604 417.884 79.2459C417.935 79.4162 417.932 79.5946 417.875 79.7637C417.818 79.9328 417.71 80.0868 417.559 80.211L404.699 90.8408C404.585 90.9356 404.449 91.0108 404.3 91.062C404.15 91.1132 403.99 91.1394 403.828 91.1391H403.825ZM28.1779 91.1391C28.0155 91.1396 27.8546 91.1135 27.7044 91.0623C27.5543 91.0111 27.4179 90.9359 27.3032 90.8408L14.443 80.211C14.2929 80.0868 14.1841 79.9328 14.1273 79.7637C14.0704 79.5946 14.0673 79.4162 14.1183 79.2459C14.0997 79.1605 14.0898 79.0739 14.0889 78.9872V76.9619C14.089 76.8683 14.0995 76.7749 14.1202 76.6829C14.0788 76.5344 14.0785 76.3802 14.1192 76.2317C14.16 76.0832 14.2407 75.9441 14.3554 75.8249C14.4702 75.7058 14.616 75.6095 14.7819 75.5434C14.9479 75.4772 15.1298 75.4429 15.3141 75.4429H36.1412V77.4682H17.7643H18.9895C18.6645 77.4682 18.3529 77.5749 18.1232 77.7648C17.8934 77.9547 17.7643 78.2123 17.7643 78.4808V80.0788L24.5025 85.6484V85.5694C26.1313 87.1036 26.9528 85.5365 26.9528 85.0631V82.5315C26.9528 82.2629 27.0819 82.0053 27.3116 81.8154C27.5414 81.6255 27.853 81.5188 28.1779 81.5188C28.5028 81.5188 28.8144 81.6255 29.0442 81.8154C29.2739 82.0053 29.403 82.2629 29.403 82.5315V90.095C29.403 90.125 29.403 90.1551 29.403 90.1851C29.3849 90.4434 29.2479 90.6861 29.02 90.8635C28.7922 91.0409 28.4909 91.1395 28.1779 91.1391ZM32.4659 77.4682H36.1412V80.5062C36.1412 79.7004 35.754 78.9277 35.0647 78.358C34.3755 77.7883 33.4406 77.4682 32.4659 77.4682ZM36.1412 75.4429H38.5915C37.9417 75.4429 37.3184 75.6563 36.8589 76.0361C36.3994 76.4159 36.1412 76.931 36.1412 77.4682V75.4429Z" fill="#593A26"/>
<path d="M394.399 96.1127L381.85 108.147C381.286 108.688 380.587 109.123 379.801 109.421C379.016 109.718 378.162 109.873 377.297 109.873H54.6934C53.8286 109.873 52.9739 109.719 52.1877 109.421C51.4016 109.123 50.7023 108.689 50.1377 108.148L37.6004 96.1243C36.659 95.2217 36.1412 94.0695 36.1412 92.8778V27.1219C36.1413 25.9303 36.6591 24.7784 37.6004 23.8758L50.1377 11.8525C50.7023 11.311 51.4015 10.8765 52.1877 10.5786C52.9738 10.2807 53.8285 10.1265 54.6934 10.1265H377.297C378.162 10.1264 379.017 10.2806 379.803 10.5784C380.589 10.8762 381.288 11.3106 381.853 11.852L394.402 23.8865C395.343 24.789 395.861 25.9409 395.861 27.1325V92.8666C395.86 94.0585 395.341 95.2105 394.399 96.1127Z" fill="#713324"/>
<path d="M57.1437 107.848C56.2788 107.848 55.424 107.694 54.6378 107.396C53.8516 107.098 53.1524 106.664 52.588 106.122L40.0507 94.0983C39.1098 93.1956 38.592 92.0438 38.5915 90.8523V67.3414H34.9162V52.6579H38.5915V29.147C38.5919 27.9553 39.1096 26.8033 40.0507 25.9005L52.588 13.8772C53.1523 13.3354 53.8514 12.9007 54.6377 12.6029C55.4239 12.3051 56.2788 12.1512 57.1437 12.1516H59.4187L68.6072 13.1643L77.7956 12.1516H358.492L360.329 13.1643L365.23 12.1516H374.847C375.712 12.1512 376.567 12.3051 377.353 12.6029C378.139 12.9007 378.839 13.3354 379.403 13.8772L391.952 25.9116C392.893 26.8144 393.411 27.9665 393.411 29.1582V52.6579H397.086V67.3414H393.411V90.8411C393.411 92.0328 392.893 93.1848 391.952 94.0877L379.403 106.122C378.838 106.664 378.139 107.098 377.353 107.396C376.567 107.694 375.712 107.848 374.847 107.848H57.1437Z" fill="#D67023"/>
<path d="M364.301 103.291H78.8701L77.433 101.865L70.3646 103.291H58.9807C58.1159 103.291 57.2612 103.137 56.475 102.839C55.6888 102.542 54.9896 102.107 54.4251 101.565L41.8877 89.5417C40.947 88.6389 40.4295 87.4871 40.4292 86.2956V63.0354L41.8093 60.1493L40.4292 56.8435V30.6663C40.4292 29.4746 40.9467 28.3226 41.8877 27.4197L54.4251 15.3965C54.9896 14.8549 55.6888 14.4203 56.475 14.1225C57.2612 13.8247 58.1159 13.6707 58.9807 13.6709H66.0865L69.1223 15.6633L74.089 13.6709H352.813L357.887 16.8268L366.847 13.6709H373.01C373.874 13.6706 374.729 13.8246 375.515 14.1224C376.302 14.4202 377.001 14.8548 377.565 15.3965L390.114 27.4309C391.055 28.3337 391.573 29.4858 391.573 30.6775V86.2845C391.573 87.4762 391.055 88.6282 390.114 89.5311L377.565 101.565C377.001 102.107 376.302 102.542 375.515 102.839C374.729 103.137 373.874 103.291 373.01 103.291H368.317L366.446 101.805L364.301 103.291Z" fill="#F0971E"/>
<g filter="url(#filter0_d_17_292)">
<path d="M364.301 103.291H78.8701L77.433 101.865L70.3646 103.291H58.9807C58.1159 103.291 57.2612 103.137 56.475 102.839C55.6888 102.542 54.9896 102.107 54.4251 101.565L41.8877 89.5417C40.947 88.6389 40.4295 87.4871 40.4292 86.2956V63.0354L41.8093 60.1493L40.4292 56.8435V30.6663C40.4292 29.4746 40.9467 28.3226 41.8877 27.4197L54.4251 15.3965C54.9896 14.8549 55.6888 14.4203 56.475 14.1225C57.2612 13.8247 58.1159 13.6707 58.9807 13.6709H66.0865L69.1223 15.6633L74.089 13.6709H352.813L357.887 16.8268L366.847 13.6709H373.01C373.874 13.6706 374.729 13.8246 375.515 14.1224C376.302 14.4202 377.001 14.8548 377.565 15.3965L390.114 27.4309C391.055 28.3337 391.573 29.4858 391.573 30.6775V86.2845C391.573 87.4762 391.055 88.6282 390.114 89.5311L377.565 101.565C377.001 102.107 376.302 102.542 375.515 102.839C374.729 103.137 373.874 103.291 373.01 103.291H368.317L366.446 101.805L364.301 103.291Z" fill="#F0971E"/>
</g>
<defs>
<filter id="filter0_d_17_292" x="38.4292" y="11.6709" width="359.144" height="97.6201" filterUnits="userSpaceOnUse" color-interpolation-filters="sRGB">
<feFlood flood-opacity="0" result="BackgroundImageFix"/>
<feColorMatrix in="SourceAlpha" type="matrix" values="0 0 0 0 0 0 0 0 0 0 0 0 0 0 0 0 0 0 127 0" result="hardAlpha"/>
<feOffset dx="2" dy="2"/>
<feGaussianBlur stdDeviation="2"/>
<feComposite in2="hardAlpha" operator="out"/>
<feColorMatrix type="matrix" values="0 0 0 0 0 0 0 0 0 0 0 0 0 0 0 0 0 0 0.25 0"/>
<feBlend mode="normal" in2="BackgroundImageFix" result="effect1_dropShadow_17_292"/>
<feBlend mode="normal" in="SourceGraphic" in2="effect1_dropShadow_17_292" result="shape"/>
</filter>
</defs>
</svg>
