<svg width="575" height="33" viewBox="0 0 575 33" fill="none" xmlns="http://www.w3.org/2000/svg">
<path d="M526.734 32.0012L551.429 0.00610352H574.53L549.836 32.0012H526.734ZM478.939 32.0012L503.633 0.00610352H526.734L502.04 32.0012H478.939ZM431.143 32.0012L455.837 0.00610352H478.939L454.244 32.0012H431.143ZM383.347 32.0012L408.041 0.00610352H431.143L406.448 32.0012H383.347ZM335.551 32.0012L360.246 0.00610352H383.347L358.652 32.0012H335.551ZM287.755 32.0012L312.45 0.00610352H335.551L310.857 32.0012H287.755ZM239.959 32.0012L264.654 0.00610352H287.755L263.061 32.0012H239.959ZM192.163 32.0012L216.858 0.00610352H239.959L215.265 32.0012H192.163ZM144.368 32.0012L169.062 0.00610352H192.163L167.469 32.0012H144.368ZM96.5717 32.0012L121.266 0.00610352H144.368L119.673 32.0012H96.5717ZM48.7758 32.0012L73.4704 0.00610352H96.5717L71.8772 32.0012H48.7758ZM0.97998 32.0012L25.6745 0.00610352H48.7758L24.0813 32.0012H0.97998Z" fill="#252018"/>
</svg>
