<svg width="180" height="180" viewBox="0 0 180 180" fill="none" xmlns="http://www.w3.org/2000/svg">
<path d="M153.75 181.875H26.25C22.802 181.878 19.3873 181.201 16.2012 179.883C13.0151 178.564 10.1202 176.631 7.68211 174.193C5.24401 171.755 3.31056 168.86 1.99238 165.674C0.6742 162.488 -0.00284217 159.073 -6.38739e-06 155.625V24.375C-0.00284217 20.927 0.6742 17.5123 1.99238 14.3262C3.31056 11.1401 5.24401 8.24523 7.68211 5.80713C10.1202 3.36902 13.0151 1.43558 16.2012 0.117397C19.3873 -1.20078 22.802 -1.87783 26.25 -1.87499L34.3856 8.9407e-06L43.125 -1.87499H153.75C157.198 -1.87783 160.613 -1.20078 163.799 0.117397C166.985 1.43558 169.88 3.36902 172.318 5.80713C174.756 8.24523 176.689 11.1401 178.008 14.3262C179.326 17.5123 180.003 20.927 180 24.375V155.625C180.003 159.073 179.326 162.488 178.008 165.674C176.689 168.86 174.756 171.755 172.318 174.193C169.88 176.631 166.985 178.564 163.799 179.883C160.613 181.201 157.198 181.878 153.75 181.875V181.875Z" fill="#734B27"/>
<path d="M15.2353 162.867L163.735 161.602L174.375 178.125L168.75 181.875L4.59374 182.133L15.2353 162.867ZM0 20.625L5.625 13.125L8.4375 15.9375L10.3125 123.75L7.5 150L0 157.5V20.625ZM170.625 150L169.688 149.063V10.3125L180 18.75V154.688L170.625 150Z" fill="#593A26"/>
<path d="M4.6875 3.75L21.5625 6.5625L103.125 15.9375L158.438 10.3125L176.25 3.75L167.812 -2.8125L100.312 -7.5L26.25 -5.625L4.6875 3.75Z" fill="#B27D3D"/>
<path d="M31.875 174.375H28.125C22.1576 174.375 16.4347 172.004 12.2151 167.785C7.99553 163.565 5.625 157.842 5.625 151.875V53.4375L7.5 45.5409L5.625 35.625V26.25C5.625 20.2826 7.99553 14.5597 12.2151 10.3401C16.4347 6.12054 22.1576 3.75 28.125 3.75H151.875C157.842 3.75 163.565 6.12054 167.785 10.3401C172.004 14.5597 174.375 20.2826 174.375 26.25V129.375L172.5 135.635L174.375 140.625V151.875C174.375 157.616 172.181 163.14 168.241 167.316C164.301 171.492 158.913 174.004 153.182 174.337L150 170.625L146.786 174.375H42.4219L37.5 171.562L31.875 174.375Z" fill="#915E31"/>
<path d="M122.327 11.25H57.6731C55.6342 11.2501 53.6778 12.055 52.2291 13.4897L15.4172 49.9444C14.6909 50.6638 14.1143 51.5201 13.7209 52.4637C13.3275 53.4073 13.1249 54.4195 13.125 55.4419V153.75C13.125 157.231 14.5078 160.569 16.9692 163.031C19.4306 165.492 22.769 166.875 26.25 166.875H153.75C157.231 166.875 160.569 165.492 163.031 163.031C165.492 160.569 166.875 157.231 166.875 153.75V55.4419C166.875 54.4195 166.672 53.4072 166.279 52.4636C165.885 51.52 165.308 50.6637 164.582 49.9444L127.77 13.4897C126.322 12.0552 124.365 11.2503 122.327 11.25Z" fill="#503E34"/>
<path d="M122.327 11.25H57.6731C55.6342 11.2501 53.6778 12.055 52.2291 13.4897L15.4172 49.9444C14.6909 50.6638 14.1143 51.5201 13.7209 52.4637C13.3275 53.4073 13.1249 54.4195 13.125 55.4419V153.75C13.125 157.231 14.5078 160.569 16.9692 163.031C19.4306 165.492 22.769 166.875 26.25 166.875H153.75C157.231 166.875 160.569 165.492 163.031 163.031C165.492 160.569 166.875 157.231 166.875 153.75V55.4419C166.875 54.4195 166.672 53.4072 166.279 52.4636C165.885 51.52 165.308 50.6637 164.582 49.9444L127.77 13.4897C126.322 12.0552 124.365 11.2503 122.327 11.25Z" fill="#493B30"/>
<path d="M121.516 15.6357H58.4841C56.594 15.636 54.7804 16.3822 53.4375 17.7123L19.3125 51.5082C18.6391 52.1751 18.1045 52.9689 17.7397 53.8436C17.3749 54.7184 17.1871 55.6567 17.1872 56.6045V150.814C17.1872 152.412 17.5019 153.994 18.1134 155.47C18.7249 156.947 19.6212 158.288 20.7511 159.418C21.8809 160.548 23.2223 161.444 24.6986 162.055C26.1748 162.667 27.7571 162.982 29.355 162.982H150.648C152.246 162.982 153.828 162.667 155.304 162.055C156.78 161.444 158.122 160.548 159.252 159.418C160.382 158.288 161.278 156.947 161.889 155.47C162.501 153.994 162.816 152.412 162.816 150.814V56.6045C162.816 55.6567 162.628 54.7184 162.263 53.8436C161.898 52.9689 161.364 52.1751 160.69 51.5082L126.563 17.7123C125.22 16.3822 123.406 15.636 121.516 15.6357V15.6357Z" fill="#513F35"/>
<path d="M5.89313 51.6064C6.06681 49.0102 6.99008 46.5202 8.55095 44.4383L8.53688 44.3727L8.77688 44.1327C8.92867 43.9292 9.09273 43.735 9.26813 43.5514C9.32626 43.4933 9.37594 43.4746 9.41907 43.4905L35.6841 17.2255H27.5278L17.4422 27.3121H14.5988C14.4578 26.18 14.752 25.0367 15.4219 24.1133C16.5141 22.8665 24.0675 15.269 25.1259 14.4477C25.4975 14.0729 25.9414 13.7777 26.4308 13.5801C26.9201 13.3825 27.4446 13.2866 27.9722 13.2983H41.1028C42.2981 13.2983 42.1875 15.2418 41.7478 15.6824L9.47626 47.9549C9.46876 48.0355 9.46407 48.0796 9.46407 48.0796C7.10063 50.7046 5.8922 56.7196 5.8922 56.7196L5.89313 51.6064Z" fill="#B27D3D"/>
<path d="M170.682 47.1401C170.682 47.1401 170.682 47.0961 170.671 47.0164L139.336 15.6814C138.895 15.2408 138.785 13.2973 139.981 13.2973H153.112C153.64 13.2857 154.164 13.3816 154.654 13.5792C155.143 13.7768 155.587 14.072 155.959 14.4467C157.017 15.2689 164.571 22.8655 165.662 24.1123C166.332 25.0356 166.627 26.1789 166.486 27.3111H163.642L153.556 17.2245H145.4L170.727 42.552C170.77 42.5361 170.821 42.552 170.878 42.613C171.054 42.7968 171.218 42.9912 171.37 43.1952L171.609 43.4342L171.595 43.4989C173.156 45.581 174.08 48.0714 174.253 50.668V55.7811C174.253 55.7811 173.045 49.7633 170.682 47.1401Z" fill="#B27D3D"/>
<path d="M5.93064 43.4408L5.6025 43.6902L3.88126 36.3458C3.88126 36.3458 5.67376 31.8918 5.62501 33.7499C5.59169 34.1541 5.64222 34.5609 5.77342 34.9447C5.90463 35.3285 6.11369 35.681 6.3875 35.9803C6.6613 36.2795 6.99396 36.519 7.36462 36.6837C7.73529 36.8484 8.13597 36.9348 8.54156 36.9374C8.84625 36.9243 9.12751 36.9374 9.39564 36.9458C9.8469 37.0145 10.3075 36.9893 10.7485 36.8717C11.1896 36.7541 11.6016 36.5466 11.9588 36.2624L29.79 18.4311L29.2763 15.3496H24.7153L14.6288 25.4361H11.7853C11.6448 24.3043 11.9394 23.1613 12.6094 22.2383C13.7016 20.9915 21.2541 13.393 22.3125 12.5727C22.6842 12.1979 23.1283 11.9027 23.6178 11.7051C24.1073 11.5074 24.632 11.4116 25.1597 11.4233H38.2903C39.4856 11.4233 39.375 13.3668 38.9353 13.8074L6.53626 46.2055L5.93064 43.4408Z" fill="#593A26"/>
<path d="M141.886 13.6246C141.443 13.1859 141.332 11.248 142.536 11.248H155.754C156.284 11.2363 156.811 11.3317 157.304 11.5285C157.796 11.7254 158.244 12.0197 158.619 12.3937C159.684 13.2131 167.288 20.7918 168.386 22.0349C169.06 22.9525 169.357 24.0928 169.217 25.2224H166.354L156.201 15.1612H147.991L169.043 36.0224C169.404 36.3061 169.819 36.5128 170.262 36.63C170.706 36.7473 171.169 36.7724 171.623 36.704C171.893 36.6927 172.176 36.6824 172.482 36.6956C172.889 36.6947 173.291 36.61 173.663 36.4466C174.035 36.2832 174.369 36.0447 174.645 35.7461C174.921 35.4475 175.132 35.0952 175.265 34.7112C175.398 34.3272 175.451 33.9198 175.419 33.5146C175.369 31.663 177.174 36.1049 177.174 36.1049L175.441 43.4305L175.111 43.1821L174.502 45.9393L141.886 13.6246Z" fill="#593A26"/>
</svg>
