<svg width="78" height="80" viewBox="0 0 78 80" fill="none" xmlns="http://www.w3.org/2000/svg">
<g clip-path="url(#clip0_17_5261)">
<path d="M65.3107 13.036C52.615 6.68307 44.0166 5.31679 40.743 4.91523C39.9766 4.8209 39.2013 4.8209 38.4348 4.91523C35.1604 5.31679 26.5558 6.68464 13.8593 13.036C12.3051 13.8137 11.0119 15.0173 10.1352 16.5019C5.73021 24.1053 2.85402 32.4742 1.66423 41.1505C1.56277 41.9028 1.56277 42.6649 1.66423 43.4172C2.85398 52.0935 5.73018 60.4625 10.1352 68.0658C11.012 69.5504 12.3051 70.754 13.8593 71.5317C26.555 77.8846 35.1533 79.2509 38.4269 79.6525C39.1933 79.7469 39.9687 79.7469 40.7351 79.6525C44.0095 79.2509 52.6142 77.8831 65.3107 71.5317C66.8649 70.7539 68.158 69.5504 69.0348 68.0658C73.4395 60.4624 76.3154 52.0935 77.5049 43.4172C77.6064 42.6649 77.6064 41.9028 77.5049 41.1505C76.3152 32.4742 73.4391 24.1052 69.034 16.5019C68.1575 15.0174 66.8646 13.8139 65.3107 13.036Z" fill="#574D3C"/>
<path d="M65.3107 13.036C52.615 6.68307 44.0166 5.31679 40.743 4.91523C39.9766 4.8209 39.2013 4.8209 38.4348 4.91523C35.1604 5.31679 26.5558 6.68464 13.8593 13.036C12.3051 13.8137 11.0119 15.0173 10.1352 16.5019C5.73021 24.1053 2.85402 32.4742 1.66423 41.1505C1.56277 41.9028 1.56277 42.6649 1.66423 43.4172C2.85398 52.0935 5.73018 60.4625 10.1352 68.0658C11.012 69.5504 12.3051 70.754 13.8593 71.5317C26.555 77.8846 35.1533 79.2509 38.4269 79.6525C39.1933 79.7469 39.9687 79.7469 40.7351 79.6525C44.0095 79.2509 52.6142 77.8831 65.3107 71.5317C66.8649 70.7539 68.158 69.5504 69.0348 68.0658C73.4395 60.4624 76.3154 52.0935 77.5049 43.4172C77.6064 42.6649 77.6064 41.9028 77.5049 41.1505C76.3152 32.4742 73.4391 24.1052 69.034 16.5019C68.1575 15.0174 66.8646 13.8139 65.3107 13.036Z" fill="#574D3C"/>
<path opacity="0.2" fill-rule="evenodd" clip-rule="evenodd" d="M71.957 62.4279L72.4221 50.5999L66.9931 61.3191L65.5852 70.2603L66.6862 70.6824C67.6322 69.9744 68.4319 69.0865 69.0347 68.0658C70.0988 66.229 71.0736 64.3475 71.957 62.4279ZM62.6516 72.8185L63.3096 65.9144L54.2863 70.5065L54.3865 69.5779L45.0345 71.4367L42.7997 79.3544C46.6198 78.7192 53.4202 77.1345 62.6516 72.8185ZM25.514 76.5014L23.9157 69.1253L24.6201 66.992L17.5706 65.8524L19.871 74.3159C21.8922 75.1749 23.7755 75.8957 25.514 76.5014Z" fill="black"/>
<path opacity="0.2" fill-rule="evenodd" clip-rule="evenodd" d="M27.9653 77.3118L28.3537 71.6832L23.2742 66.2761L25.5778 76.5237C26.407 76.8118 27.2031 77.0736 27.9653 77.3118Z" fill="white"/>
<path d="M65.3107 8.19128C52.615 1.83833 44.0166 0.472068 40.743 0.0704995C39.9766 -0.0238253 39.2013 -0.0238253 38.4348 0.0704995C35.1604 0.472068 26.5558 1.8399 13.8593 8.19128C12.3051 8.96899 11.0119 10.1725 10.1352 11.6572C5.73018 19.2605 2.85398 27.6294 1.66423 36.3058C1.56277 37.058 1.56277 37.8202 1.66423 38.5725C2.85398 47.2488 5.73018 55.6178 10.1352 63.2211C11.0119 64.7057 12.3051 65.9093 13.8593 66.687C26.555 73.0399 35.1533 74.4062 38.4269 74.8078C39.1933 74.9022 39.9687 74.9022 40.7351 74.8078C44.0095 74.4062 52.6142 73.0384 65.3107 66.687C66.8649 65.9092 68.158 64.7057 69.0348 63.2211C73.4395 55.6177 76.3154 47.2488 77.5049 38.5725C77.6064 37.8202 77.6064 37.058 77.5049 36.3058C76.3151 27.6294 73.439 19.2605 69.034 11.6572C68.1575 10.1727 66.8646 8.96915 65.3107 8.19128Z" fill="#877862"/>
<path fill-rule="evenodd" clip-rule="evenodd" d="M13.7089 28.0611L54.8499 5.81563L53.5414 3.18182C47.2497 1.00032 42.8712 0.331558 40.743 0.0704995C39.9766 -0.0238253 39.2013 -0.0238253 38.4348 0.0704995C35.1604 0.472068 26.5558 1.8399 13.8593 8.19128C12.3051 8.96899 11.0119 10.1725 10.1352 11.6572C5.73018 19.2605 2.85398 27.6294 1.66423 36.3058C1.56277 37.058 1.56277 37.8202 1.66423 38.5725C2.07754 41.5866 2.69437 44.5635 3.50812 47.4842L5.99882 52.2337L13.7089 28.0611Z" fill="#9F8D6F"/>
<path fill-rule="evenodd" clip-rule="evenodd" d="M76.9514 41.9627C75.5363 49.4266 72.8629 56.6131 69.0347 63.2213C68.1579 64.7059 66.8648 65.9094 65.3106 66.6871C52.6141 73.0385 44.0094 74.4064 40.735 74.8079C39.9686 74.9024 39.1932 74.9024 38.4268 74.8079C35.1532 74.4064 26.5549 73.0401 13.8592 66.6871C12.305 65.9094 11.0118 64.7059 10.1352 63.2213C9.82268 62.6819 9.5179 62.1387 9.22087 61.5918C9.21535 61.475 9.21127 61.358 9.20864 61.241C8.74594 60.4211 8.31083 59.574 7.90332 58.6998C8.5321 59.4788 9.18023 60.2138 9.84774 60.9045L9.86445 60.9162C11.2295 61.8817 17.5913 65.6378 20.8482 66.3013C24.1051 66.9649 26.0065 67.6833 27.6708 69.1641C29.0955 70.2582 30.7175 71.0767 32.4511 71.5766C34.216 71.7948 35.9929 71.9059 37.7717 71.9092C39.6288 71.9128 41.484 71.7907 43.3241 71.5437C50.91 70.5021 56.7608 68.1319 61.2673 64.9853L64.3571 59.2119L68.8245 57.5155C75.4609 48.2378 76.1542 36.8166 75.9154 30.4519C76.6765 34.2459 77.0228 38.1047 76.9514 41.9627ZM70.4837 14.2929C72.4708 18.1028 74.0861 22.084 75.3111 26.1827L75.3431 36.0849L65.9751 30.1366L53.0813 7.04408L58.2778 5.94604L70.4837 14.2929Z" fill="#6F604E"/>
<path d="M1.66751 38.5726C1.56656 37.8203 1.56656 37.0582 1.66751 36.3059C2.8516 27.6283 5.72806 19.2583 10.1384 11.6573C11.0144 10.1723 12.3079 8.96886 13.8626 8.1922C22.7108 3.76632 31.208 0.957699 38.4381 0.0706402C39.2045 -0.0235467 39.9799 -0.0235467 40.7463 0.0706402C47.9709 0.956915 56.4657 3.76554 65.3139 8.1922C66.3188 8.69424 67.2193 9.37771 67.9683 10.2071C59.5173 6.19064 51.3798 3.61887 44.4354 2.76397C43.6349 2.66609 42.8251 2.66609 42.0245 2.76397C34.983 3.62671 26.7939 6.23456 18.2322 10.3271L16.236 14.0424L11.3292 16.8659C7.35876 24.2777 4.74372 32.3205 3.60397 40.6259C3.49794 41.4117 3.49794 42.2079 3.60397 42.9938C4.29547 48.042 5.53605 53.0023 7.30423 57.7891C4.4757 51.6919 2.57629 45.2166 1.66751 38.5726Z" fill="#C9BA93"/>
<path d="M49.9353 39.8147L56.9259 32.0093C57.0441 31.8783 57.1068 31.7076 57.1008 31.5324C57.0949 31.3572 57.0208 31.191 56.894 31.0681L50.931 25.2414C50.8044 25.1182 50.6352 25.0465 50.4573 25.0407C50.2794 25.0349 50.1058 25.0953 49.9711 25.21L41.9825 32.0398L33.9939 25.21C33.8592 25.0953 33.6856 25.0349 33.5077 25.0407C33.3298 25.0465 33.1606 25.1182 33.0339 25.2414L27.071 31.0681C26.944 31.1909 26.8698 31.3571 26.8639 31.5324C26.858 31.7076 26.9207 31.8784 27.0391 32.0093L34.0313 39.8147L27.0415 47.6202C26.9233 47.7512 26.8606 47.9219 26.8665 48.0971C26.8725 48.2723 26.9466 48.4385 27.0734 48.5614L33.0364 54.3881C33.163 54.5113 33.3322 54.583 33.5101 54.5888C33.688 54.5946 33.8616 54.5342 33.9963 54.4194L41.9849 47.5896L50.4685 54.843L56.8964 48.5622C57.0232 48.4393 57.0972 48.2731 57.1032 48.0979C57.1091 47.9227 57.0464 47.752 56.9282 47.621L49.9353 39.8147Z" fill="#9F9076"/>
<g filter="url(#filter0_i_17_5261)">
<path d="M47.5474 37.462L54.5379 29.6565C54.6562 29.5255 54.7188 29.3548 54.7129 29.1796C54.707 29.0044 54.6329 28.8382 54.5061 28.7153L48.5431 22.8886C48.4164 22.7654 48.2472 22.6937 48.0693 22.6879C47.8914 22.6821 47.7178 22.7425 47.5832 22.8573L39.5945 29.6871L31.6059 22.8573C31.4712 22.7425 31.2976 22.6821 31.1197 22.6879C30.9418 22.6937 30.7726 22.7654 30.646 22.8886L24.683 28.7153C24.556 28.8381 24.4819 29.0044 24.476 29.1796C24.47 29.3548 24.5327 29.5256 24.6511 29.6565L31.6433 37.462L24.6536 45.2674C24.5353 45.3984 24.4727 45.5691 24.4786 45.7443C24.4845 45.9195 24.5586 46.0857 24.6854 46.2086L30.6484 52.0353C30.7751 52.1585 30.9443 52.2302 31.1222 52.236C31.3001 52.2418 31.4737 52.1814 31.6083 52.0667L39.597 45.2369L48.0806 52.4902L54.5085 46.2094C54.6353 46.0865 54.7093 45.9203 54.7152 45.7451C54.7212 45.5699 54.6585 45.3992 54.5403 45.2682L47.5474 37.462Z" fill="#3E382B"/>
</g>
</g>
<defs>
<filter id="filter0_i_17_5261" x="24.4756" y="22.6875" width="32.24" height="31.8027" filterUnits="userSpaceOnUse" color-interpolation-filters="sRGB">
<feFlood flood-opacity="0" result="BackgroundImageFix"/>
<feBlend mode="normal" in="SourceGraphic" in2="BackgroundImageFix" result="shape"/>
<feColorMatrix in="SourceAlpha" type="matrix" values="0 0 0 0 0 0 0 0 0 0 0 0 0 0 0 0 0 0 127 0" result="hardAlpha"/>
<feOffset dx="2" dy="2"/>
<feGaussianBlur stdDeviation="2"/>
<feComposite in2="hardAlpha" operator="arithmetic" k2="-1" k3="1"/>
<feColorMatrix type="matrix" values="0 0 0 0 0 0 0 0 0 0 0 0 0 0 0 0 0 0 0.25 0"/>
<feBlend mode="normal" in2="shape" result="effect1_innerShadow_17_5261"/>
</filter>
<clipPath id="clip0_17_5261">
<rect width="78" height="80" fill="white"/>
</clipPath>
</defs>
</svg>
