<svg width="1620" height="648" viewBox="0 0 1620 648" fill="none" xmlns="http://www.w3.org/2000/svg">
<path d="M1597.18 648H22.8194C19.822 648.002 16.8536 647.415 14.0839 646.271C11.3142 645.128 8.79763 643.45 6.67816 641.335C4.55869 639.219 2.87792 636.708 1.73201 633.943C0.586102 631.179 -0.00245746 628.216 7.71199e-06 625.225V22.7752C-0.00245746 19.7837 0.586102 16.821 1.73201 14.0566C2.87792 11.2923 4.55869 8.7806 6.67816 6.66524C8.79763 4.54987 11.3142 2.87235 14.0839 1.72866C16.8536 0.584968 19.822 -0.0024527 22.8194 7.69708e-06L29.8918 1.62681L37.489 7.69708e-06H1597.18C1600.18 -0.0024527 1603.15 0.584968 1605.92 1.72866C1608.69 2.87235 1611.2 4.54987 1613.32 6.66524C1615.44 8.7806 1617.12 11.2923 1618.27 14.0566C1619.41 16.821 1620 19.7837 1620 22.7752V625.225C1620 628.216 1619.41 631.179 1618.27 633.943C1617.12 636.708 1615.44 639.219 1613.32 641.335C1611.2 643.45 1608.69 645.128 1605.92 646.271C1603.15 647.415 1600.18 648.002 1597.18 648Z" fill="#4D4539"/>
<path d="M13.2434 631.289L1605.86 630.191L1615.11 644.525L1610.22 647.778L3.99339 648L13.2434 631.289ZM0 22.4462L4.88987 15.9402L7.3348 18.38L8.96476 607.856L6.51982 620.127L0 626.633V22.4462ZM1611.85 620.127L1611.04 619.314V13.5005L1620 20.8197V624.194L1611.85 620.127Z" fill="#3F382A"/>
<path d="M4.07495 5.26454L18.7446 7.70563L1548.18 15.8424L1596.27 10.9602L1611.75 5.26434L1604.42 -0.431526L1545.74 -4.5L22.8194 -2.8724L4.07495 5.26454Z" fill="#877862"/>
<path d="M66.8282 648H24.4494C21.8802 648.002 19.3358 647.498 16.9618 646.518C14.5877 645.537 12.4306 644.099 10.6139 642.286C8.79725 640.472 7.3566 638.319 6.37441 635.949C5.39221 633.58 4.88776 631.04 4.8899 628.475V615.453L6.51986 608.604L4.8899 600.002V563.719L8.14981 555.259L4.8899 509.504V83.3065L7.33483 78.9136L4.8899 71.5919V52.8745L6.51986 46.0255L4.8899 37.4242V29.2891C4.88776 26.7245 5.39221 24.1846 6.37441 21.8149C7.3566 19.4451 8.79725 17.2919 10.6139 15.4784C12.4306 13.665 14.5877 12.2269 16.9618 11.2465C19.3358 10.2661 21.8802 9.76252 24.4494 9.76466H58.3525L63.5683 13.0187L64.3833 9.76466L1551.67 9.76466L1558.19 11.3917L1563.62 9.76466H1572.86L1576.12 12.2052L1582.64 9.76466H1594.05C1596.62 9.76252 1599.16 10.2661 1601.54 11.2465C1603.91 12.2269 1606.07 13.665 1607.89 15.4784C1609.7 17.2919 1611.14 19.4451 1612.13 21.8149C1613.11 24.1846 1613.61 26.7245 1613.61 29.2891V63.9986L1611.98 68.3378L1613.61 71.5919V79.9305L1611.17 82.9811L1613.61 95.7948V584.545L1611.98 591.054L1613.61 595.121V608.951L1611.98 614.383L1613.61 618.712V628.475C1613.61 631.039 1613.11 633.579 1612.13 635.949C1611.14 638.318 1609.7 640.472 1607.89 642.285C1606.07 644.098 1603.91 645.537 1601.54 646.517C1599.16 647.497 1596.62 648.001 1594.05 647.999H1567.16L1561.45 645.558L1555.75 647.999H1539.45L1526.81 646.372L1514.18 647.999H75.9967L71.7181 645.559L66.8282 648Z" fill="#605749"/>
<path d="M1603.01 594.881L1571.13 626.407C1569.87 627.647 1568.18 628.344 1566.41 628.344H53.5861C51.82 628.344 50.1254 627.647 48.8706 626.407L16.9854 594.881C16.3563 594.259 15.8569 593.518 15.5161 592.702C15.1754 591.886 14.9999 591.011 15 590.126V57.4501C15 56.5659 15.1756 55.6905 15.5165 54.8745C15.8574 54.0585 16.357 53.318 16.9862 52.6959L48.8714 21.1698C50.126 19.9292 51.8203 19.2331 53.5861 19.2329H1566.41C1568.18 19.2329 1569.87 19.929 1571.13 21.1698L1603.01 52.6959C1603.64 53.318 1604.14 54.0585 1604.48 54.8745C1604.82 55.6905 1605 56.5659 1605 57.4501V590.126C1605 591.011 1604.82 591.886 1604.48 592.702C1604.14 593.518 1603.64 594.259 1603.01 594.881Z" fill="#352F25"/>
<path d="M1603.01 595.359L1571.13 626.839C1569.87 628.078 1568.18 628.773 1566.41 628.773H53.5861C51.82 628.773 50.1254 628.078 48.8706 626.839L16.9854 595.359C16.3563 594.738 15.8569 593.998 15.5161 593.183C15.1754 592.369 14.9999 591.495 15 590.612V57.3941C15 56.5112 15.1756 55.6371 15.5165 54.8222C15.8574 54.0074 16.357 53.268 16.9862 52.6468L48.8714 21.167C50.126 19.9282 51.8203 19.2331 53.5861 19.2329H1566.41C1568.18 19.2329 1569.87 19.928 1571.13 21.167L1603.01 52.6468C1603.64 53.268 1604.14 54.0074 1604.48 54.8222C1604.82 55.6371 1605 56.5112 1605 57.3941V590.612C1605 591.495 1604.82 592.369 1604.48 593.184C1604.14 593.998 1603.64 594.738 1603.01 595.359Z" fill="#362F25"/>
<path d="M1593.92 582.28C1593.92 583.098 1593.76 583.908 1593.44 584.663C1593.13 585.418 1592.67 586.103 1592.08 586.678L1562.57 615.845C1561.41 616.993 1559.84 617.636 1558.2 617.636H61.2638C59.6294 617.636 58.061 616.993 56.8992 615.845L27.3843 586.677C26.8019 586.102 26.3396 585.417 26.024 584.662C25.7085 583.907 25.546 583.097 25.5459 582.279V89.9603C25.5485 89.162 25.6422 88.3667 25.8252 87.5897V65.9904C25.8252 65.171 25.988 64.3597 26.3042 63.6035C26.6203 62.8472 27.0835 62.1611 27.6669 61.5848L57.2411 32.3702C58.4053 31.2202 59.9769 30.5752 61.6147 30.5752H1558.66C1560.3 30.5752 1561.87 31.2202 1563.04 32.3702L1592.61 61.5848C1593.2 62.161 1593.66 62.8471 1593.97 63.6033C1594.29 64.3596 1594.45 65.1709 1594.45 65.9904L1593.92 582.28Z" fill="#484132"/>
<path opacity="0.6" d="M76.1353 615.206H61.6154C59.9769 615.211 58.4038 614.565 57.2418 613.411L47.1889 603.426L46.6692 599.792L44.2331 597.36L41.797 594.117L35.1383 591.458L29.7448 586.102C29.1882 585.549 28.7461 584.893 28.4439 584.169C28.1416 583.446 27.9852 582.67 27.9836 581.886V564.93H27.9925V83.2827H27.9819V66.3242C27.9836 65.5404 28.14 64.7646 28.4422 64.0412C28.7444 63.3178 29.1865 62.661 29.7432 62.1083L48.3939 43.5859L50.7293 44.3666L51.3489 40.655L57.241 34.803C58.4032 33.6501 59.9762 33.0048 61.6146 33.0088H118.603L123.812 36.2591L125.436 33.0161L125.363 33.0088H1534.74L1540.85 35.4484L1547.57 33.0088H1558.38C1560.02 33.0048 1561.6 33.6501 1562.76 34.803L1566.06 38.0768L1566.83 42.7451L1572.45 44.4274L1590.26 62.1115C1590.81 62.6642 1591.26 63.321 1591.56 64.0444C1591.86 64.7678 1592.02 65.5436 1592.02 66.3275V80.3534L1588.76 84.9042L1592.01 87.3365V564.93H1592.02V581.889C1592.02 582.673 1591.86 583.448 1591.56 584.172C1591.26 584.895 1590.81 585.552 1590.26 586.105L1577.04 599.225L1572.52 599.792L1571.71 602.225L1569.27 604.657L1567.75 608.453L1562.76 613.41C1561.6 614.563 1560.02 615.209 1558.39 615.205H1556.29L1554.65 613.575L1544.86 615.205H95.4308L87.2707 613.575L75.9023 615.197L76.1353 615.205V615.206Z" fill="#383227"/>
<path d="M5.12289 51.3011C5.27377 49.0474 6.07669 46.8858 7.43417 45.0788L7.42193 45.0226L7.62975 44.8152C7.7619 44.6379 7.90479 44.4689 8.05761 44.309C8.10814 44.2586 8.15134 44.2423 8.18883 44.2562L31.0212 21.4589H23.931L15.1626 30.2134H12.6908C12.5686 29.231 12.8247 28.239 13.4071 27.4379C14.3558 26.3557 20.922 19.7607 21.8422 19.0487C22.1652 18.7235 22.5511 18.4673 22.9765 18.2958C23.4019 18.1243 23.8578 18.041 24.3164 18.0511H35.7318C36.7709 18.0511 36.6748 19.7379 36.2925 20.1203L8.23773 48.1301C8.23121 48.2001 8.22713 48.2384 8.22713 48.2384C6.17257 50.5167 5.12207 55.7382 5.12207 55.7382L5.12289 51.3011Z" fill="#877862"/>
<path d="M5.15554 44.2148L4.87032 44.4312L3.37402 38.0567C3.37402 38.0567 4.93306 34.1909 4.88987 35.8028C4.86115 36.1537 4.90527 36.5067 5.01947 36.8397C5.13367 37.1728 5.31549 37.4787 5.55356 37.7384C5.79162 37.9981 6.0808 38.2059 6.40301 38.3489C6.72521 38.4919 7.0735 38.5669 7.42608 38.5694C7.69095 38.558 7.93463 38.5694 8.16771 38.5767C8.56037 38.6362 8.9611 38.614 9.34479 38.5117C9.72848 38.4093 10.0869 38.229 10.3975 37.9819L25.8967 22.5062L25.4501 19.8324H21.4845L12.7169 28.587H10.2451C10.1227 27.6047 10.3785 26.6127 10.9606 25.8114C11.9101 24.7292 18.4764 18.1342 19.3965 17.4223C19.7194 17.0969 20.1054 16.8407 20.5308 16.6692C20.9562 16.4977 21.4121 16.4145 21.8707 16.4247H33.2853C34.3244 16.4247 34.2283 18.1115 33.846 18.4931L5.68202 46.6135L5.15554 44.2148Z" fill="#3F382A"/>
<path d="M1610.39 47.3164C1610.4 47.3864 1610.4 47.4247 1610.4 47.4247C1612.45 49.7006 1613.5 54.9245 1613.5 54.9245V50.4866C1613.35 48.233 1612.55 46.0714 1611.19 44.2643L1611.21 44.2081L1611 44.0015C1610.87 43.8242 1610.72 43.6551 1610.57 43.4953C1610.52 43.4424 1610.48 43.4286 1610.44 43.4425L1588.42 21.4589H1595.51L1604.28 30.2134H1606.75C1606.87 29.231 1606.62 28.239 1606.04 27.4379C1605.09 26.3557 1598.52 19.7615 1597.6 19.0487C1597.28 18.7235 1596.89 18.4673 1596.47 18.2958C1596.04 18.1243 1595.58 18.041 1595.13 18.0511H1583.71C1582.67 18.0511 1582.77 19.7379 1583.15 20.1203L1610.39 47.3164Z" fill="#877862"/>
<path d="M1585.93 16.2757C1584.89 16.2757 1584.98 17.9576 1585.37 18.3393L1613.72 46.3857L1614.25 43.9934L1614.54 44.209L1616.04 37.8508C1616.04 37.8508 1614.47 33.9947 1614.52 35.6026C1614.54 35.9543 1614.5 36.3078 1614.38 36.641C1614.27 36.9743 1614.08 37.28 1613.84 37.5392C1613.6 37.7983 1613.31 38.0052 1612.99 38.1469C1612.67 38.2886 1612.32 38.362 1611.96 38.3627C1611.7 38.3513 1611.45 38.3602 1611.22 38.37C1610.82 38.4292 1610.42 38.4075 1610.04 38.3062C1609.65 38.2049 1609.29 38.0261 1608.98 37.7809L1590.67 19.6729H1597.81L1606.64 28.4055H1609.13C1609.25 27.425 1608.99 26.4351 1608.4 25.6389C1607.45 24.56 1600.84 17.982 1599.91 17.2709C1599.59 16.9461 1599.2 16.6906 1598.77 16.5196C1598.34 16.3485 1597.88 16.2656 1597.42 16.2757H1585.93Z" fill="#3F382A"/>
<path opacity="0.702" d="M24.2301 631.424C23.7721 631.434 23.3167 631.352 22.8912 631.182C22.4658 631.013 22.079 630.759 21.7542 630.436C20.834 629.73 14.2629 623.205 13.3134 622.137C12.7305 621.347 12.474 620.363 12.5971 619.39H15.0705L23.8446 628.053H30.9349L6 603.828L6.70741 600.643L36.2102 629.377C36.5941 629.755 36.6903 631.424 35.6495 631.424L24.2301 631.424Z" fill="#877862"/>
<path opacity="0.702" d="M1581.5 631.004C1581.11 631.382 1581.02 633.051 1582.06 633.051L1593.48 633.048C1593.94 633.058 1594.4 632.976 1594.82 632.806C1595.25 632.637 1595.63 632.383 1595.96 632.061C1596.88 631.359 1603.45 624.833 1604.4 623.761C1604.98 622.971 1605.24 621.987 1605.11 621.014H1602.64L1593.87 629.678H1586.77L1612.5 604.576L1613.75 599.096C1613.75 599.096 1581.88 630.625 1581.5 631.004Z" fill="#877862"/>
<path d="M21.7835 633.032C21.3255 633.042 20.8701 632.96 20.4447 632.79C20.0192 632.621 19.6325 632.367 19.3076 632.045C18.3875 631.339 11.8163 624.812 10.8668 623.745C10.2845 622.955 10.0281 621.971 10.1505 620.998H12.6239L21.398 629.662H25.3661L25.8127 627.015L10.3004 611.697C9.98866 611.453 9.63008 611.275 9.24676 611.173C8.86345 611.072 8.46347 611.051 8.07145 611.11C7.83837 611.119 7.59389 611.128 7.3282 611.117C6.97739 611.118 6.63043 611.19 6.30908 611.331C5.98773 611.471 5.69889 611.677 5.46065 611.934C5.22242 612.191 5.03992 612.494 4.92458 612.825C4.80924 613.156 4.76354 613.507 4.79035 613.856C4.83354 615.452 3.27368 611.626 3.27368 611.626L4.07481 603.889L5.16605 605.028L5.58252 603.157C5.58252 603.157 33.3831 630.608 33.7661 630.985C34.1491 631.362 34.2453 633.032 33.2046 633.032L21.7835 633.032Z" fill="#3F382A"/>
<path d="M1585.35 631.14C1584.96 631.517 1584.87 633.182 1585.91 633.182L1597.41 633.183C1597.87 633.193 1598.33 633.112 1598.75 632.943C1599.18 632.773 1599.57 632.52 1599.9 632.198C1600.83 631.494 1607.44 624.985 1608.4 623.916C1608.98 623.13 1609.24 622.148 1609.12 621.176H1606.63L1597.8 629.817H1590.66L1608.97 611.897C1609.29 611.654 1609.65 611.476 1610.03 611.376C1610.42 611.276 1610.82 611.254 1611.21 611.313C1611.45 611.32 1611.69 611.331 1611.96 611.32C1612.31 611.319 1612.66 611.39 1612.98 611.529C1613.31 611.669 1613.6 611.873 1613.84 612.129C1614.08 612.386 1614.26 612.689 1614.38 613.02C1614.49 613.351 1614.54 613.703 1614.52 614.053C1614.47 615.644 1616.04 611.827 1616.04 611.827L1614.54 605.535L1614.25 605.748L1613.72 603.38L1585.35 631.14Z" fill="#3F382A"/>
</svg>
