<svg width="66" height="66" viewBox="0 0 66 66" fill="none" xmlns="http://www.w3.org/2000/svg">
<path opacity="0.2" d="M55.1552 7.22038C43.9407 1.61656 36.3456 0.416528 33.4532 0.0625304C32.7748 -0.0208435 33.2309 -0.0208435 32.5512 0.0625304C29.6588 0.416528 22.0581 1.62203 10.8422 7.22038C9.47235 7.90581 8.33224 8.96599 7.55858 10.2738C3.66527 16.9723 1.12162 24.3486 0.0674182 31.9974C-0.0224727 32.6606 -0.0224727 33.3326 0.0674182 33.9957C1.12092 41.6465 3.6646 49.0246 7.55858 55.7248C8.33352 57.0339 9.47562 58.0947 10.8477 58.7796C22.0622 64.3834 29.6588 65.5821 32.5498 65.9375C33.2282 66.0208 32.772 66.0208 33.4517 65.9375C36.3441 65.5835 43.9449 64.378 55.1608 58.7796C56.5328 58.0946 57.6749 57.0338 58.4499 55.7248C62.3404 49.0257 64.8811 41.6495 65.9327 34.0011C66.0224 33.338 66.0224 32.6661 65.9327 32.0029C64.8811 24.3546 62.3404 16.9783 58.4499 10.2792C57.6741 8.96789 56.5299 7.90563 55.1552 7.22038Z" fill="#E3A018"/>
<path d="M32.9809 48C29.2535 47.9952 25.6614 46.6029 22.9046 44.0942C20.1477 41.5856 18.4237 38.1403 18.0683 34.4299C17.713 30.7195 18.7519 27.0096 20.9826 24.0234C23.2132 21.0371 26.4758 18.9883 30.1346 18.2763C33.7933 17.5642 37.5862 18.2399 40.7739 20.1717C43.9617 22.1035 46.316 25.1529 47.3781 28.7258C48.4402 32.2987 48.1341 36.139 46.5192 39.4985C44.9044 42.8579 42.0966 45.4958 38.643 46.8981C36.8448 47.6283 34.9218 48.0025 32.9809 48ZM32.9785 22.6889C31.1165 22.6888 29.2896 23.1954 27.6934 24.1543C26.0973 25.1131 24.7921 26.4882 23.9177 28.1321C23.0433 29.776 22.6326 31.6269 22.7297 33.4863C22.8267 35.3458 23.4278 37.1439 24.4686 38.6878C24.3436 36.8347 24.5919 34.9754 25.1987 33.2199C25.8055 31.4645 26.7584 29.8488 28.0011 28.4684C29.2438 27.088 30.7509 25.9712 32.4332 25.1839C34.1154 24.3967 35.9386 23.9552 37.7946 23.8855C36.3106 23.0999 34.6571 22.6889 32.978 22.6884L32.9785 22.6889Z" fill="#FAAF16"/>
</svg>
