<svg width="45" height="40" viewBox="0 0 45 40" fill="none" xmlns="http://www.w3.org/2000/svg">
<path d="M43.8668 40L23.768 39.2995L6.65939 39.0971L5.82883 35.9114L5.01534 39.0799L0 39.0209L1.02243 23.8219L5.40488 24.1733L1.16625 21.6829L1.44161 17.5903L0.505409 5.95167L4.69737 5.32133L0.371137 4.28324L0.0265841 0L31.9781 0.560196L45 0.279934L44.1988 12.0629L41.0943 12.3013L44.0968 13.5603L43.5028 22.2843L43.6838 31.098L41.2354 31.7354L43.7121 32.4706L43.8668 39.9993V40Z" fill="#E6393D"/>
<path fill-rule="evenodd" clip-rule="evenodd" d="M43.7523 34.4256H0.309143L0.58139 30.3785H43.669L43.6838 31.098L41.2354 31.7354L43.7121 32.4706L43.7523 34.4256ZM43.5721 25.6568H0.899012L1.02245 23.8219L5.40491 24.1733L1.16627 21.6829L1.1712 21.6097H43.5488L43.5028 22.2843L43.5721 25.6568ZM43.8703 16.888H21.6911V12.8408H42.3811L44.0969 13.5603L43.8703 16.888ZM44.4669 8.11917H21.6911V4.07202H44.7422L44.4669 8.11917Z" fill="#F0F0F0"/>
<path fill-rule="evenodd" clip-rule="evenodd" d="M1.44677 0.0249023L21.6909 0.379837V21.6097H1.17103L1.44147 17.5903L0.505264 5.95167L4.69722 5.32133L0.370992 4.28324L0.0284424 0.0249023H1.44677Z" fill="#3333AC"/>
<path d="M11.0173 13.5155L6.48692 16.7738L8.20767 11.5395L3.89508 8.35205H9.33164L11.0357 3.36597L15.6928 16.9182L11.0173 13.5155ZM13.9114 8.35239H18.3171L14.7873 10.9523L13.9114 8.35239Z" fill="white"/>
</svg>
