<svg width="66" height="66" viewBox="0 0 66 66" fill="none" xmlns="http://www.w3.org/2000/svg">
<path opacity="0.2" d="M55.1552 7.22038C43.9407 1.61656 36.3456 0.416528 33.4532 0.0625304C32.7748 -0.0208435 33.2309 -0.0208435 32.5512 0.0625304C29.6588 0.416528 22.0581 1.62203 10.8422 7.22038C9.47235 7.90581 8.33224 8.96599 7.55858 10.2738C3.66527 16.9723 1.12162 24.3486 0.0674182 31.9974C-0.0224727 32.6606 -0.0224727 33.3326 0.0674182 33.9957C1.12092 41.6465 3.6646 49.0246 7.55858 55.7248C8.33352 57.0339 9.47562 58.0947 10.8477 58.7796C22.0622 64.3834 29.6588 65.5821 32.5498 65.9375C33.2282 66.0208 32.772 66.0208 33.4517 65.9375C36.3441 65.5835 43.9449 64.378 55.1608 58.7796C56.5328 58.0946 57.6749 57.0338 58.4499 55.7248C62.3404 49.0257 64.8811 41.6495 65.9327 34.0011C66.0224 33.338 66.0224 32.6661 65.9327 32.0029C64.8811 24.3546 62.3404 16.9783 58.4499 10.2792C57.6741 8.96789 56.5299 7.90563 55.1552 7.22038Z" fill="#50BAC3"/>
<path d="M46.4111 47.9998H35.3729V32.2878H30.101V47.9993H19.5837V32.2783H18V27.0491H48V32.2783H46.4111V47.9993V47.9998ZM33.2225 24.6635H25.4763C24.487 24.676 23.5326 24.3323 22.823 23.7081C22.1135 23.0838 21.7068 22.2301 21.6924 21.3345C21.6924 18.4408 25.5989 16.9254 28.0275 18.8761L34.2264 23.8582L38.8411 20.1515C40.7352 18.6275 43.7815 19.812 43.7815 22.0689C43.7703 22.7673 43.4532 23.433 42.8999 23.9198C42.3466 24.4066 41.6024 24.6746 40.8309 24.665L33.2225 24.6635Z" fill="#50BAC3"/>
</svg>
