<svg width="240" height="240" viewBox="0 0 240 240" fill="none" xmlns="http://www.w3.org/2000/svg">
<path d="M205 242.5H35C30.4027 242.504 25.8497 241.601 21.6016 239.844C17.3535 238.086 13.4936 235.508 10.2428 232.257C6.99203 229.006 4.4141 225.147 2.65653 220.898C0.898954 216.65 -0.00376921 212.097 1.18285e-05 207.5V32.5C-0.00376921 27.9027 0.898954 23.3497 2.65653 19.1016C4.4141 14.8535 6.99203 10.9936 10.2428 7.74284C13.4936 4.49203 17.3535 1.9141 21.6016 0.156529C25.8497 -1.60105 30.4027 -2.50377 35 -2.49999L45.8475 1.19209e-05L57.5 -2.49999H205C209.597 -2.50377 214.15 -1.60105 218.398 0.156529C222.647 1.9141 226.506 4.49203 229.757 7.74284C233.008 10.9936 235.586 14.8535 237.344 19.1016C239.101 23.3497 240.004 27.9027 240 32.5V207.5C240.004 212.097 239.101 216.65 237.344 220.898C235.586 225.147 233.008 229.006 229.757 232.257C226.506 235.508 222.647 238.086 218.398 239.844C214.15 241.601 209.597 242.504 205 242.5Z" fill="#4B4339"/>
<path d="M20.3138 217.156L218.314 215.469L232.5 237.5L225 242.5L6.12499 242.844L20.3138 217.156ZM0 27.5L7.5 17.5L11.25 21.25L13.75 165L10 200L0 210V27.5ZM227.5 200L226.25 198.75V13.75L240 25V206.25L227.5 200Z" fill="#474031"/>
<path d="M6.25 5L28.75 8.75L137.5 21.25L211.25 13.75L235 5L223.75 -3.75L133.75 -10L35 -7.5L6.25 5Z" fill="#877862"/>
<path d="M42.5 232.5H37.5C29.5435 232.5 21.9129 229.339 16.2868 223.713C10.6607 218.087 7.5 210.456 7.5 202.5V71.25L10 60.7212L7.5 47.5V35C7.5 27.0435 10.6607 19.4129 16.2868 13.7868C21.9129 8.16072 29.5435 5 37.5 5H202.5C210.456 5 218.087 8.16072 223.713 13.7868C229.339 19.4129 232.5 27.0435 232.5 35V172.5L230 180.846L232.5 187.5V202.5C232.5 210.155 229.574 217.52 224.321 223.088C219.068 228.656 211.885 232.005 204.243 232.45L200 227.5L195.715 232.5H56.5625L50 228.75L42.5 232.5Z" fill="#605749"/>
<path d="M163.102 15H76.8975C74.179 15.0001 71.5704 16.0733 69.6387 17.9863L20.5563 66.5925C19.5878 67.5518 18.8191 68.6935 18.2945 69.9516C17.7699 71.2098 17.4999 72.5594 17.5 73.9225V205C17.5 209.641 19.3438 214.092 22.6256 217.374C25.9075 220.656 30.3587 222.5 35 222.5H205C209.641 222.5 214.092 220.656 217.374 217.374C220.656 214.092 222.5 209.641 222.5 205V73.9225C222.5 72.5593 222.23 71.2096 221.705 69.9514C221.18 68.6933 220.411 67.5516 219.442 66.5925L170.36 17.9863C168.429 16.0736 165.821 15.0005 163.102 15Z" fill="#503E34"/>
<path d="M163.102 15H76.8975C74.179 15.0001 71.5704 16.0733 69.6387 17.9863L20.5563 66.5925C19.5878 67.5518 18.8191 68.6935 18.2945 69.9516C17.7699 71.2098 17.4999 72.5594 17.5 73.9225V205C17.5 209.641 19.3438 214.092 22.6256 217.374C25.9075 220.656 30.3587 222.5 35 222.5H205C209.641 222.5 214.092 220.656 217.374 217.374C220.656 214.092 222.5 209.641 222.5 205V73.9225C222.5 72.5593 222.23 71.2096 221.705 69.9514C221.18 68.6933 220.411 67.5516 219.442 66.5925L170.36 17.9863C168.429 16.0736 165.821 15.0005 163.102 15Z" fill="#3A3426"/>
<path d="M162.021 20.8474H77.9785C75.4584 20.8477 73.0403 21.8428 71.2498 23.6162L25.7498 68.6774C24.8519 69.5666 24.1391 70.6249 23.6527 71.7912C23.1664 72.9576 22.916 74.2087 22.916 75.4724V201.085C22.916 203.215 23.3357 205.325 24.151 207.293C24.9663 209.262 26.1613 211.05 27.6679 212.557C29.1744 214.063 30.9629 215.258 32.9312 216.074C34.8996 216.889 37.0092 217.309 39.1398 217.309H200.864C202.994 217.309 205.104 216.889 207.072 216.074C209.04 215.258 210.829 214.063 212.335 212.557C213.842 211.05 215.037 209.262 215.852 207.293C216.668 205.325 217.087 203.215 217.087 201.085V75.4724C217.087 74.2087 216.837 72.9576 216.351 71.7912C215.864 70.6249 215.151 69.5666 214.254 68.6774L168.75 23.6162C166.959 21.8428 164.541 20.8477 162.021 20.8474Z" fill="#413B2D"/>
<path d="M7.85769 68.8088C8.08926 65.3471 9.32029 62.0271 11.4014 59.2513L11.3827 59.1638L11.7027 58.8438C11.9051 58.5724 12.1238 58.3135 12.3577 58.0687C12.4352 57.9912 12.5014 57.9663 12.5589 57.9875L47.5789 22.9675H36.7039L23.2564 36.4163H19.4652C19.2772 34.9069 19.6695 33.3824 20.5627 32.1513C22.0189 30.4888 32.0902 20.3588 33.5014 19.2638C33.9968 18.764 34.5887 18.3704 35.2412 18.1069C35.8937 17.8435 36.593 17.7156 37.2964 17.7313H54.8039C56.3977 17.7313 56.2502 20.3225 55.6639 20.91L12.6352 63.94C12.6252 64.0475 12.6189 64.1063 12.6189 64.1063C9.46769 67.6063 7.85645 75.6263 7.85645 75.6263L7.85769 68.8088Z" fill="#7D6F5B"/>
<path d="M227.576 62.8538C227.576 62.8538 227.576 62.795 227.561 62.6888L185.781 20.9088C185.194 20.3213 185.046 17.73 186.641 17.73H204.15C204.853 17.7145 205.553 17.8424 206.205 18.1059C206.857 18.3693 207.449 18.7629 207.945 19.2625C209.356 20.3588 219.427 30.4875 220.882 32.15C221.776 33.381 222.169 34.9055 221.981 36.415H218.19L204.741 22.9663H193.866L227.636 56.7363C227.694 56.715 227.761 56.7363 227.837 56.8175C228.072 57.0627 228.291 57.3219 228.494 57.5938L228.812 57.9125L228.794 57.9988C230.875 60.7749 232.106 64.0955 232.337 67.5575V74.375C232.337 74.375 230.726 66.3513 227.576 62.8538Z" fill="#7D6F5B"/>
<path d="M7.90731 57.9213L7.4698 58.2538L5.1748 48.4613C5.1748 48.4613 7.56481 42.5225 7.49981 45C7.45539 45.539 7.52275 46.0813 7.69769 46.5931C7.87263 47.1048 8.15138 47.5749 8.51646 47.9739C8.88154 48.3729 9.32508 48.6922 9.81929 48.9118C10.3135 49.1314 10.8477 49.2465 11.3885 49.25C11.7948 49.2325 12.1698 49.25 12.5273 49.2613C13.129 49.3528 13.7431 49.3192 14.3312 49.1624C14.9193 49.0056 15.4686 48.729 15.9448 48.35L39.7198 24.575L39.0348 20.4662H32.9536L19.5048 33.915H15.7136C15.5262 32.4059 15.919 30.8819 16.8123 29.6513C18.2686 27.9888 28.3386 17.8575 29.7498 16.7638C30.2454 16.264 30.8376 15.8704 31.4902 15.6069C32.1429 15.3434 32.8424 15.2156 33.5461 15.2313H51.0535C52.6473 15.2313 52.4998 17.8225 51.9136 18.41L8.71481 61.6075L7.90731 57.9213Z" fill="#474031"/>
<path d="M189.181 18.1661C188.59 17.5811 188.443 14.9974 190.048 14.9974H207.673C208.379 14.9817 209.082 15.1089 209.738 15.3714C210.395 15.6339 210.992 16.0262 211.493 16.5249C212.913 17.6174 223.051 27.7224 224.515 29.3799C225.413 30.6033 225.809 32.1238 225.623 33.6299H221.805L208.268 20.2149H197.321L225.391 48.0299C225.872 48.4081 226.425 48.6838 227.017 48.84C227.608 48.9963 228.225 49.0299 228.83 48.9387C229.19 48.9237 229.568 48.9099 229.976 48.9274C230.518 48.9263 231.054 48.8133 231.55 48.5954C232.047 48.3776 232.493 48.0597 232.86 47.6615C233.228 47.2633 233.509 46.7936 233.687 46.2816C233.865 45.7696 233.935 45.2264 233.893 44.6861C233.825 42.2174 236.233 48.1399 236.233 48.1399L233.921 57.9074L233.481 57.5762L232.669 61.2524L189.181 18.1661Z" fill="#474031"/>
</svg>
