<svg width="45" height="40" viewBox="0 0 45 40" fill="none" xmlns="http://www.w3.org/2000/svg">
<path d="M43.8668 40L23.768 39.2995L6.65939 39.0971L5.82883 35.9114L5.01534 39.0799L0 39.0209L1.02243 23.8219L5.40488 24.1733L1.16625 21.6829L1.44161 17.5903L0.505409 5.95167L4.69737 5.32133L0.371137 4.28324L0.0265841 0L31.9781 0.560196L45 0.279934L44.1988 12.0629L41.0943 12.3013L44.0968 13.5603L43.5028 22.2843L43.6838 31.098L41.2354 31.7354L43.7121 32.4706L43.8668 39.9993V40Z" fill="#E6393D"/>
<path fill-rule="evenodd" clip-rule="evenodd" d="M43.5882 26.4406H0.846252L1.02241 23.8219L5.40487 24.1733L1.16623 21.6829L1.4416 17.5903L1.09007 13.2202H43.2858L44.0968 13.5603L43.5028 22.2843L43.5882 26.4406Z" fill="#0039A6"/>
<path fill-rule="evenodd" clip-rule="evenodd" d="M44.8757 0.282605L31.9779 0.560196L0.0264282 0L0.370981 4.28324L4.69721 5.32133L0.505253 5.95167L1.08994 13.2203H43.2859L41.0942 12.3013L44.1986 12.0629L44.8757 2.10514V0.282605Z" fill="white"/>
<g style="mix-blend-mode:overlay" opacity="0.3">
<path fill-rule="evenodd" clip-rule="evenodd" d="M22.2141 39.2813L6.65939 39.0973L5.82883 35.9116L5.01534 39.0801L0 39.0211L1.02243 23.8221L5.40488 24.1735L1.16625 21.6831L1.44161 17.5905L1.05284 12.7573L27.9545 27.4576L22.2141 39.2813Z" fill="white"/>
</g>
</svg>
